<?xml version="1.0" standalone="no"?>
<!DOCTYPE svg PUBLIC "-//W3C//DTD SVG 1.1//EN" "http://www.w3.org/Graphics/SVG/1.1/DTD/svg11.dtd" >
<svg xmlns="http://www.w3.org/2000/svg" xmlns:xlink="http://www.w3.org/1999/xlink" version="1.1">
<metadata>
Created by FontForge 20190801 at Thu May  7 18:11:16 2020
 By Jimmy Wärting
Copyright Shturman Alex 2020
</metadata>
<defs>
<font id="MK-90" horiz-adv-x="3510" >
  <font-face 
    font-family="MK-90"
    font-weight="400"
    font-stretch="normal"
    units-per-em="4096"
    panose-1="0 0 4 0 0 0 0 0 0 0"
    ascent="4096"
    descent="0"
    x-height="2867"
    cap-height="4037"
    bbox="0 0 3150 4096"
    underline-thickness="204"
    underline-position="307"
    unicode-range="U+0020-20AC"
  />
<missing-glyph horiz-adv-x="3735" 
d="M3081 50l-1506 1978l-1506 -1978h3012zM50 69l1506 1979l-1506 1978v-3957v0zM3100 69v3957l-1506 -1978l1506 -1979v0zM1575 2067l1506 1979h-3012l1506 -1979v0zM0 0v4096h3150v-4096h-3150z" />
    <glyph glyph-name=".notdef" horiz-adv-x="3735" 
d="M3081 50l-1506 1978l-1506 -1978h3012zM50 69l1506 1979l-1506 1978v-3957v0zM3100 69v3957l-1506 -1978l1506 -1979v0zM1575 2067l1506 1979h-3012l1506 -1979v0zM0 0v4096h3150v-4096h-3150z" />
    <glyph glyph-name="glyph1" horiz-adv-x="585" 
 />
    <glyph glyph-name="glyph2" horiz-adv-x="585" 
 />
    <glyph glyph-name="space" unicode=" " horiz-adv-x="585" 
 />
    <glyph glyph-name="exclam" unicode="!" horiz-adv-x="2340" 
d="M1228 58v468h468v-468h-468zM1228 1228v468h468v-468h-468zM1228 1813v469h468v-469h-468zM1228 2399v468h468v-468h-468zM1228 2984v468h468v-468h-468zM1228 3569v468h468v-468h-468z" />
    <glyph glyph-name="quotedbl" unicode="&#x22;" horiz-adv-x="2925" 
d="M643 2984v468h468v-468h-468zM1813 2984v468h469v-468h-469zM643 3569v468h468v-468h-468zM1813 3569v468h469v-468h-469z" />
    <glyph glyph-name="numbersign" unicode="#" 
d="M643 58v468h468v-468h-468zM1813 58v468h469v-468h-469zM643 643v468h468v-468h-468zM1813 643v468h469v-468h-469zM58 1228v468h468v-468h-468zM643 1228v468h468v-468h-468zM1228 1228v468h468v-468h-468zM1813 1228v468h469v-468h-469zM2399 1228v468h468v-468h-468z
M643 1813v469h468v-469h-468zM1813 1813v469h469v-469h-469zM58 2399v468h468v-468h-468zM643 2399v468h468v-468h-468zM1228 2399v468h468v-468h-468zM1813 2399v468h469v-468h-469zM2399 2399v468h468v-468h-468zM643 2984v468h468v-468h-468zM1813 2984v468h469v-468
h-469zM643 3569v468h468v-468h-468zM1813 3569v468h469v-468h-469z" />
    <glyph glyph-name="dollar" unicode="$" 
d="M643 58v468h468v-468h-468zM1228 58v468h468v-468h-468zM1813 58v468h469v-468h-469zM58 643v468h468v-468h-468zM1228 643v468h468v-468h-468zM2399 643v468h468v-468h-468zM1228 1228v468h468v-468h-468zM2399 1228v468h468v-468h-468zM643 1813v469h468v-469h-468z
M1228 1813v469h468v-469h-468zM1813 1813v469h469v-469h-469zM58 2399v468h468v-468h-468zM1228 2399v468h468v-468h-468zM58 2984v468h468v-468h-468zM1228 2984v468h468v-468h-468zM2399 2984v468h468v-468h-468zM643 3569v468h468v-468h-468zM1228 3569v468h468v-468
h-468zM1813 3569v468h469v-468h-469z" />
    <glyph glyph-name="percent" unicode="%" 
d="M1813 58v468h469v-468h-469zM2399 58v468h468v-468h-468zM58 643v468h468v-468h-468zM1813 643v468h469v-468h-469zM2399 643v468h468v-468h-468zM643 1228v468h468v-468h-468zM1228 1813v469h468v-469h-468zM1813 2399v468h469v-468h-469zM58 2984v468h468v-468h-468z
M643 2984v468h468v-468h-468zM2399 2984v468h468v-468h-468zM58 3569v468h468v-468h-468zM643 3569v468h468v-468h-468z" />
    <glyph glyph-name="ampersand" unicode="&#x26;" 
d="M643 58v468h468v-468h-468zM1228 58v468h468v-468h-468zM2399 58v468h468v-468h-468zM58 643v468h468v-468h-468zM1813 643v468h469v-468h-469zM58 1228v468h468v-468h-468zM1228 1228v468h468v-468h-468zM2399 1228v468h468v-468h-468zM643 1813v469h468v-469h-468z
M58 2399v468h468v-468h-468zM1228 2399v468h468v-468h-468zM58 2984v468h468v-468h-468zM1228 2984v468h468v-468h-468zM643 3569v468h468v-468h-468z" />
    <glyph glyph-name="quotesingle" unicode="'" horiz-adv-x="1755" 
d="M643 2984v468h468v-468h-468zM643 3569v468h468v-468h-468z" />
    <glyph glyph-name="parenleft" unicode="(" horiz-adv-x="2925" 
d="M1813 58v468h469v-468h-469zM1228 643v468h468v-468h-468zM643 1228v468h468v-468h-468zM643 1813v469h468v-469h-468zM643 2399v468h468v-468h-468zM1228 2984v468h468v-468h-468zM1813 3569v468h469v-468h-469z" />
    <glyph glyph-name="parenright" unicode=")" horiz-adv-x="2925" 
d="M643 58v468h468v-468h-468zM1228 643v468h468v-468h-468zM1813 1228v468h469v-468h-469zM1813 1813v469h469v-469h-469zM1813 2399v468h469v-468h-469zM1228 2984v468h468v-468h-468zM643 3569v468h468v-468h-468z" />
    <glyph glyph-name="asterisk" unicode="*" 
d="M1228 643v468h468v-468h-468zM58 1228v468h468v-468h-468zM1228 1228v468h468v-468h-468zM2399 1228v468h468v-468h-468zM643 1813v469h468v-469h-468zM1228 1813v469h468v-469h-468zM1813 1813v469h469v-469h-469zM58 2399v468h468v-468h-468zM1228 2399v468h468v-468
h-468zM2399 2399v468h468v-468h-468zM1228 2984v468h468v-468h-468z" />
    <glyph glyph-name="plus" unicode="+" 
d="M1228 643v468h468v-468h-468zM1228 1228v468h468v-468h-468zM58 1813v469h468v-469h-468zM643 1813v469h468v-469h-468zM1228 1813v469h468v-469h-468zM1813 1813v469h469v-469h-469zM2399 1813v469h468v-469h-468zM1228 2399v468h468v-468h-468zM1228 2984v468h468v-468
h-468z" />
    <glyph glyph-name="comma" unicode="," horiz-adv-x="2340" 
d="M643 58v468h468v-468h-468zM1228 643v468h468v-468h-468zM643 1228v468h468v-468h-468zM1228 1228v468h468v-468h-468z" />
    <glyph glyph-name="hyphen" unicode="-" 
d="M58 1813v469h468v-469h-468zM643 1813v469h468v-469h-468zM1228 1813v469h468v-469h-468zM1813 1813v469h469v-469h-469zM2399 1813v469h468v-469h-468z" />
    <glyph glyph-name="period" unicode="." horiz-adv-x="2340" 
d="M643 58v468h468v-468h-468zM1228 58v468h468v-468h-468zM643 643v468h468v-468h-468zM1228 643v468h468v-468h-468z" />
    <glyph glyph-name="slash" unicode="/" 
d="M58 643v468h468v-468h-468zM643 1228v468h468v-468h-468zM1228 1813v469h468v-469h-468zM1813 2399v468h469v-468h-469zM2399 2984v468h468v-468h-468z" />
    <glyph glyph-name="zero" unicode="0" 
d="M643 58v468h468v-468h-468zM1228 58v468h468v-468h-468zM1813 58v468h469v-468h-469zM58 643v468h468v-468h-468zM2399 643v468h468v-468h-468zM58 1228v468h468v-468h-468zM643 1228v468h468v-468h-468zM2399 1228v468h468v-468h-468zM58 1813v469h468v-469h-468z
M1228 1813v469h468v-469h-468zM2399 1813v469h468v-469h-468zM58 2399v468h468v-468h-468zM1813 2399v468h469v-468h-469zM2399 2399v468h468v-468h-468zM58 2984v468h468v-468h-468zM2399 2984v468h468v-468h-468zM643 3569v468h468v-468h-468zM1228 3569v468h468v-468
h-468zM1813 3569v468h469v-468h-469z" />
    <glyph glyph-name="one" unicode="1" horiz-adv-x="2925" 
d="M643 58v468h468v-468h-468zM1228 58v468h468v-468h-468zM1813 58v468h469v-468h-469zM1228 643v468h468v-468h-468zM1228 1228v468h468v-468h-468zM1228 1813v469h468v-469h-468zM1228 2399v468h468v-468h-468zM643 2984v468h468v-468h-468zM1228 2984v468h468v-468h-468
zM1228 3569v468h468v-468h-468z" />
    <glyph glyph-name="two" unicode="2" 
d="M58 58v468h468v-468h-468zM643 58v468h468v-468h-468zM1228 58v468h468v-468h-468zM1813 58v468h469v-468h-469zM2399 58v468h468v-468h-468zM643 643v468h468v-468h-468zM1228 1228v468h468v-468h-468zM1813 1813v469h469v-469h-469zM2399 2399v468h468v-468h-468z
M58 2984v468h468v-468h-468zM2399 2984v468h468v-468h-468zM643 3569v468h468v-468h-468zM1228 3569v468h468v-468h-468zM1813 3569v468h469v-468h-469z" />
    <glyph glyph-name="three" unicode="3" 
d="M643 58v468h468v-468h-468zM1228 58v468h468v-468h-468zM1813 58v468h469v-468h-469zM58 643v468h468v-468h-468zM2399 643v468h468v-468h-468zM2399 1228v468h468v-468h-468zM1813 1813v469h469v-469h-469zM1228 2399v468h468v-468h-468zM1813 2984v468h469v-468h-469z
M58 3569v468h468v-468h-468zM643 3569v468h468v-468h-468zM1228 3569v468h468v-468h-468zM1813 3569v468h469v-468h-469zM2399 3569v468h468v-468h-468z" />
    <glyph glyph-name="four" unicode="4" 
d="M1813 58v468h469v-468h-469zM1813 643v468h469v-468h-469zM58 1228v468h468v-468h-468zM643 1228v468h468v-468h-468zM1228 1228v468h468v-468h-468zM1813 1228v468h469v-468h-469zM2399 1228v468h468v-468h-468zM58 1813v469h468v-469h-468zM1813 1813v469h469v-469
h-469zM643 2399v468h468v-468h-468zM1813 2399v468h469v-468h-469zM1228 2984v468h468v-468h-468zM1813 2984v468h469v-468h-469zM1813 3569v468h469v-468h-469z" />
    <glyph glyph-name="five" unicode="5" 
d="M643 58v468h468v-468h-468zM1228 58v468h468v-468h-468zM1813 58v468h469v-468h-469zM58 643v468h468v-468h-468zM2399 643v468h468v-468h-468zM2399 1228v468h468v-468h-468zM2399 1813v469h468v-469h-468zM58 2399v468h468v-468h-468zM643 2399v468h468v-468h-468z
M1228 2399v468h468v-468h-468zM1813 2399v468h469v-468h-469zM58 2984v468h468v-468h-468zM58 3569v468h468v-468h-468zM643 3569v468h468v-468h-468zM1228 3569v468h468v-468h-468zM1813 3569v468h469v-468h-469zM2399 3569v468h468v-468h-468z" />
    <glyph glyph-name="six" unicode="6" 
d="M643 58v468h468v-468h-468zM1228 58v468h468v-468h-468zM1813 58v468h469v-468h-469zM58 643v468h468v-468h-468zM2399 643v468h468v-468h-468zM58 1228v468h468v-468h-468zM2399 1228v468h468v-468h-468zM58 1813v469h468v-469h-468zM643 1813v469h468v-469h-468z
M1228 1813v469h468v-469h-468zM1813 1813v469h469v-469h-469zM58 2399v468h468v-468h-468zM643 2984v468h468v-468h-468zM1228 3569v468h468v-468h-468zM1813 3569v468h469v-468h-469z" />
    <glyph glyph-name="seven" unicode="7" 
d="M643 58v468h468v-468h-468zM643 643v468h468v-468h-468zM643 1228v468h468v-468h-468zM1228 1813v469h468v-469h-468zM1813 2399v468h469v-468h-469zM2399 2984v468h468v-468h-468zM58 3569v468h468v-468h-468zM643 3569v468h468v-468h-468zM1228 3569v468h468v-468h-468
zM1813 3569v468h469v-468h-469zM2399 3569v468h468v-468h-468z" />
    <glyph glyph-name="eight" unicode="8" 
d="M643 58v468h468v-468h-468zM1228 58v468h468v-468h-468zM1813 58v468h469v-468h-469zM58 643v468h468v-468h-468zM2399 643v468h468v-468h-468zM58 1228v468h468v-468h-468zM2399 1228v468h468v-468h-468zM643 1813v469h468v-469h-468zM1228 1813v469h468v-469h-468z
M1813 1813v469h469v-469h-469zM58 2399v468h468v-468h-468zM2399 2399v468h468v-468h-468zM58 2984v468h468v-468h-468zM2399 2984v468h468v-468h-468zM643 3569v468h468v-468h-468zM1228 3569v468h468v-468h-468zM1813 3569v468h469v-468h-469z" />
    <glyph glyph-name="nine" unicode="9" 
d="M643 58v468h468v-468h-468zM1228 58v468h468v-468h-468zM1813 643v468h469v-468h-469zM2399 1228v468h468v-468h-468zM643 1813v469h468v-469h-468zM1228 1813v469h468v-469h-468zM1813 1813v469h469v-469h-469zM2399 1813v469h468v-469h-468zM58 2399v468h468v-468h-468
zM2399 2399v468h468v-468h-468zM58 2984v468h468v-468h-468zM2399 2984v468h468v-468h-468zM643 3569v468h468v-468h-468zM1228 3569v468h468v-468h-468zM1813 3569v468h469v-468h-469z" />
    <glyph glyph-name="colon" unicode=":" horiz-adv-x="2340" 
d="M643 643v468h468v-468h-468zM1228 643v468h468v-468h-468zM643 1228v468h468v-468h-468zM1228 1228v468h468v-468h-468zM643 2399v468h468v-468h-468zM1228 2399v468h468v-468h-468zM643 2984v468h468v-468h-468zM1228 2984v468h468v-468h-468z" />
    <glyph glyph-name="semicolon" unicode=";" horiz-adv-x="2340" 
d="M643 58v468h468v-468h-468zM1228 643v468h468v-468h-468zM643 1228v468h468v-468h-468zM1228 1228v468h468v-468h-468zM643 2399v468h468v-468h-468zM1228 2399v468h468v-468h-468zM643 2984v468h468v-468h-468zM1228 2984v468h468v-468h-468z" />
    <glyph glyph-name="less" unicode="&#x3c;" horiz-adv-x="2925" 
d="M1813 58v468h469v-468h-469zM1228 643v468h468v-468h-468zM643 1228v468h468v-468h-468zM58 1813v469h468v-469h-468zM643 2399v468h468v-468h-468zM1228 2984v468h468v-468h-468zM1813 3569v468h469v-468h-469z" />
    <glyph glyph-name="equal" unicode="=" 
d="M58 1228v468h468v-468h-468zM643 1228v468h468v-468h-468zM1228 1228v468h468v-468h-468zM1813 1228v468h469v-468h-469zM2399 1228v468h468v-468h-468zM58 2399v468h468v-468h-468zM643 2399v468h468v-468h-468zM1228 2399v468h468v-468h-468zM1813 2399v468h469v-468
h-469zM2399 2399v468h468v-468h-468z" />
    <glyph glyph-name="greater" unicode="&#x3e;" 
d="M643 58v468h468v-468h-468zM1228 643v468h468v-468h-468zM1813 1228v468h469v-468h-469zM2399 1813v469h468v-469h-468zM1813 2399v468h469v-468h-469zM1228 2984v468h468v-468h-468zM643 3569v468h468v-468h-468z" />
    <glyph glyph-name="question" unicode="?" 
d="M1228 58v468h468v-468h-468zM1228 1228v468h468v-468h-468zM1813 1813v469h469v-469h-469zM2399 2399v468h468v-468h-468zM58 2984v468h468v-468h-468zM2399 2984v468h468v-468h-468zM643 3569v468h468v-468h-468zM1228 3569v468h468v-468h-468zM1813 3569v468h469v-468
h-469z" />
    <glyph glyph-name="at" unicode="@" 
d="M643 58v468h468v-468h-468zM1228 58v468h468v-468h-468zM1813 58v468h469v-468h-469zM2399 58v468h468v-468h-468zM58 643v468h468v-468h-468zM58 1228v468h468v-468h-468zM1228 1228v468h468v-468h-468zM1813 1228v468h469v-468h-469zM2399 1228v468h468v-468h-468z
M58 1813v469h468v-469h-468zM1228 1813v469h468v-469h-468zM2399 1813v469h468v-469h-468zM58 2399v468h468v-468h-468zM1228 2399v468h468v-468h-468zM1813 2399v468h469v-468h-469zM2399 2399v468h468v-468h-468zM58 2984v468h468v-468h-468zM2399 2984v468h468v-468h-468
zM643 3569v468h468v-468h-468zM1228 3569v468h468v-468h-468zM1813 3569v468h469v-468h-469z" />
    <glyph glyph-name="A" unicode="A" 
d="M58 58v468h468v-468h-468zM2399 58v468h468v-468h-468zM58 643v468h468v-468h-468zM2399 643v468h468v-468h-468zM58 1228v468h468v-468h-468zM643 1228v468h468v-468h-468zM1228 1228v468h468v-468h-468zM1813 1228v468h469v-468h-469zM2399 1228v468h468v-468h-468z
M58 1813v469h468v-469h-468zM2399 1813v469h468v-469h-468zM58 2399v468h468v-468h-468zM2399 2399v468h468v-468h-468zM643 2984v468h468v-468h-468zM1813 2984v468h469v-468h-469zM1228 3569v468h468v-468h-468z" />
    <glyph glyph-name="B" unicode="B" 
d="M58 58v468h468v-468h-468zM643 58v468h468v-468h-468zM1228 58v468h468v-468h-468zM1813 58v468h469v-468h-469zM58 643v468h468v-468h-468zM2399 643v468h468v-468h-468zM58 1228v468h468v-468h-468zM2399 1228v468h468v-468h-468zM58 1813v469h468v-469h-468zM643 1813
v469h468v-469h-468zM1228 1813v469h468v-469h-468zM1813 1813v469h469v-469h-469zM58 2399v468h468v-468h-468zM2399 2399v468h468v-468h-468zM58 2984v468h468v-468h-468zM2399 2984v468h468v-468h-468zM58 3569v468h468v-468h-468zM643 3569v468h468v-468h-468zM1228 3569
v468h468v-468h-468zM1813 3569v468h469v-468h-469z" />
    <glyph glyph-name="C" unicode="C" 
d="M643 58v468h468v-468h-468zM1228 58v468h468v-468h-468zM1813 58v468h469v-468h-469zM58 643v468h468v-468h-468zM2399 643v468h468v-468h-468zM58 1228v468h468v-468h-468zM58 1813v469h468v-469h-468zM58 2399v468h468v-468h-468zM58 2984v468h468v-468h-468z
M2399 2984v468h468v-468h-468zM643 3569v468h468v-468h-468zM1228 3569v468h468v-468h-468zM1813 3569v468h469v-468h-469z" />
    <glyph glyph-name="D" unicode="D" 
d="M58 58v468h468v-468h-468zM643 58v468h468v-468h-468zM1228 58v468h468v-468h-468zM58 643v468h468v-468h-468zM1813 643v468h469v-468h-469zM58 1228v468h468v-468h-468zM2399 1228v468h468v-468h-468zM58 1813v469h468v-469h-468zM2399 1813v469h468v-469h-468z
M58 2399v468h468v-468h-468zM2399 2399v468h468v-468h-468zM58 2984v468h468v-468h-468zM1813 2984v468h469v-468h-469zM58 3569v468h468v-468h-468zM643 3569v468h468v-468h-468zM1228 3569v468h468v-468h-468z" />
    <glyph glyph-name="E" unicode="E" 
d="M58 58v468h468v-468h-468zM643 58v468h468v-468h-468zM1228 58v468h468v-468h-468zM1813 58v468h469v-468h-469zM2399 58v468h468v-468h-468zM58 643v468h468v-468h-468zM58 1228v468h468v-468h-468zM58 1813v469h468v-469h-468zM643 1813v469h468v-469h-468zM1228 1813
v469h468v-469h-468zM1813 1813v469h469v-469h-469zM58 2399v468h468v-468h-468zM58 2984v468h468v-468h-468zM58 3569v468h468v-468h-468zM643 3569v468h468v-468h-468zM1228 3569v468h468v-468h-468zM1813 3569v468h469v-468h-469zM2399 3569v468h468v-468h-468z" />
    <glyph glyph-name="F" unicode="F" 
d="M58 58v468h468v-468h-468zM58 643v468h468v-468h-468zM58 1228v468h468v-468h-468zM58 1813v469h468v-469h-468zM643 1813v469h468v-469h-468zM1228 1813v469h468v-469h-468zM1813 1813v469h469v-469h-469zM58 2399v468h468v-468h-468zM58 2984v468h468v-468h-468z
M58 3569v468h468v-468h-468zM643 3569v468h468v-468h-468zM1228 3569v468h468v-468h-468zM1813 3569v468h469v-468h-469zM2399 3569v468h468v-468h-468z" />
    <glyph glyph-name="G" unicode="G" 
d="M643 58v468h468v-468h-468zM1228 58v468h468v-468h-468zM1813 58v468h469v-468h-469zM2399 58v468h468v-468h-468zM58 643v468h468v-468h-468zM2399 643v468h468v-468h-468zM58 1228v468h468v-468h-468zM2399 1228v468h468v-468h-468zM58 1813v469h468v-469h-468z
M1228 1813v469h468v-469h-468zM1813 1813v469h469v-469h-469zM2399 1813v469h468v-469h-468zM58 2399v468h468v-468h-468zM58 2984v468h468v-468h-468zM2399 2984v468h468v-468h-468zM643 3569v468h468v-468h-468zM1228 3569v468h468v-468h-468zM1813 3569v468h469v-468
h-469z" />
    <glyph glyph-name="H" unicode="H" 
d="M58 58v468h468v-468h-468zM2399 58v468h468v-468h-468zM58 643v468h468v-468h-468zM2399 643v468h468v-468h-468zM58 1228v468h468v-468h-468zM2399 1228v468h468v-468h-468zM58 1813v469h468v-469h-468zM643 1813v469h468v-469h-468zM1228 1813v469h468v-469h-468z
M1813 1813v469h469v-469h-469zM2399 1813v469h468v-469h-468zM58 2399v468h468v-468h-468zM2399 2399v468h468v-468h-468zM58 2984v468h468v-468h-468zM2399 2984v468h468v-468h-468zM58 3569v468h468v-468h-468zM2399 3569v468h468v-468h-468z" />
    <glyph glyph-name="I" unicode="I" horiz-adv-x="2925" 
d="M643 58v468h468v-468h-468zM1228 58v468h468v-468h-468zM1813 58v468h469v-468h-469zM1228 643v468h468v-468h-468zM1228 1228v468h468v-468h-468zM1228 1813v469h468v-469h-468zM1228 2399v468h468v-468h-468zM1228 2984v468h468v-468h-468zM643 3569v468h468v-468h-468
zM1228 3569v468h468v-468h-468zM1813 3569v468h469v-468h-469z" />
    <glyph glyph-name="J" unicode="J" 
d="M643 58v468h468v-468h-468zM1228 58v468h468v-468h-468zM58 643v468h468v-468h-468zM1813 643v468h469v-468h-469zM1813 1228v468h469v-468h-469zM1813 1813v469h469v-469h-469zM1813 2399v468h469v-468h-469zM1813 2984v468h469v-468h-469zM1228 3569v468h468v-468h-468
zM1813 3569v468h469v-468h-469zM2399 3569v468h468v-468h-468z" />
    <glyph glyph-name="K" unicode="K" 
d="M58 58v468h468v-468h-468zM2399 58v468h468v-468h-468zM58 643v468h468v-468h-468zM1813 643v468h469v-468h-469zM58 1228v468h468v-468h-468zM1228 1228v468h468v-468h-468zM58 1813v469h468v-469h-468zM643 1813v469h468v-469h-468zM58 2399v468h468v-468h-468z
M1228 2399v468h468v-468h-468zM58 2984v468h468v-468h-468zM1813 2984v468h469v-468h-469zM58 3569v468h468v-468h-468zM2399 3569v468h468v-468h-468z" />
    <glyph glyph-name="L" unicode="L" 
d="M58 58v468h468v-468h-468zM643 58v468h468v-468h-468zM1228 58v468h468v-468h-468zM1813 58v468h469v-468h-469zM2399 58v468h468v-468h-468zM58 643v468h468v-468h-468zM58 1228v468h468v-468h-468zM58 1813v469h468v-469h-468zM58 2399v468h468v-468h-468zM58 2984v468
h468v-468h-468zM58 3569v468h468v-468h-468z" />
    <glyph glyph-name="M" unicode="M" 
d="M58 58v468h468v-468h-468zM2399 58v468h468v-468h-468zM58 643v468h468v-468h-468zM2399 643v468h468v-468h-468zM58 1228v468h468v-468h-468zM2399 1228v468h468v-468h-468zM58 1813v469h468v-469h-468zM1228 1813v469h468v-469h-468zM2399 1813v469h468v-469h-468z
M58 2399v468h468v-468h-468zM1228 2399v468h468v-468h-468zM2399 2399v468h468v-468h-468zM58 2984v468h468v-468h-468zM643 2984v468h468v-468h-468zM1813 2984v468h469v-468h-469zM2399 2984v468h468v-468h-468zM58 3569v468h468v-468h-468zM2399 3569v468h468v-468h-468z
" />
    <glyph glyph-name="N" unicode="N" 
d="M58 58v468h468v-468h-468zM2399 58v468h468v-468h-468zM58 643v468h468v-468h-468zM2399 643v468h468v-468h-468zM58 1228v468h468v-468h-468zM1813 1228v468h469v-468h-469zM2399 1228v468h468v-468h-468zM58 1813v469h468v-469h-468zM1228 1813v469h468v-469h-468z
M2399 1813v469h468v-469h-468zM58 2399v468h468v-468h-468zM643 2399v468h468v-468h-468zM2399 2399v468h468v-468h-468zM58 2984v468h468v-468h-468zM2399 2984v468h468v-468h-468zM58 3569v468h468v-468h-468zM2399 3569v468h468v-468h-468z" />
    <glyph glyph-name="O" unicode="O" 
d="M643 58v468h468v-468h-468zM1228 58v468h468v-468h-468zM1813 58v468h469v-468h-469zM58 643v468h468v-468h-468zM2399 643v468h468v-468h-468zM58 1228v468h468v-468h-468zM2399 1228v468h468v-468h-468zM58 1813v469h468v-469h-468zM2399 1813v469h468v-469h-468z
M58 2399v468h468v-468h-468zM2399 2399v468h468v-468h-468zM58 2984v468h468v-468h-468zM2399 2984v468h468v-468h-468zM643 3569v468h468v-468h-468zM1228 3569v468h468v-468h-468zM1813 3569v468h469v-468h-469z" />
    <glyph glyph-name="P" unicode="P" 
d="M58 58v468h468v-468h-468zM58 643v468h468v-468h-468zM58 1228v468h468v-468h-468zM58 1813v469h468v-469h-468zM643 1813v469h468v-469h-468zM1228 1813v469h468v-469h-468zM1813 1813v469h469v-469h-469zM58 2399v468h468v-468h-468zM2399 2399v468h468v-468h-468z
M58 2984v468h468v-468h-468zM2399 2984v468h468v-468h-468zM58 3569v468h468v-468h-468zM643 3569v468h468v-468h-468zM1228 3569v468h468v-468h-468zM1813 3569v468h469v-468h-469z" />
    <glyph glyph-name="Q" unicode="Q" 
d="M643 58v468h468v-468h-468zM1228 58v468h468v-468h-468zM2399 58v468h468v-468h-468zM58 643v468h468v-468h-468zM1813 643v468h469v-468h-469zM58 1228v468h468v-468h-468zM1228 1228v468h468v-468h-468zM2399 1228v468h468v-468h-468zM58 1813v469h468v-469h-468z
M2399 1813v469h468v-469h-468zM58 2399v468h468v-468h-468zM2399 2399v468h468v-468h-468zM58 2984v468h468v-468h-468zM2399 2984v468h468v-468h-468zM643 3569v468h468v-468h-468zM1228 3569v468h468v-468h-468zM1813 3569v468h469v-468h-469z" />
    <glyph glyph-name="R" unicode="R" 
d="M58 58v468h468v-468h-468zM2399 58v468h468v-468h-468zM58 643v468h468v-468h-468zM1813 643v468h469v-468h-469zM58 1228v468h468v-468h-468zM1228 1228v468h468v-468h-468zM58 1813v469h468v-469h-468zM643 1813v469h468v-469h-468zM1228 1813v469h468v-469h-468z
M1813 1813v469h469v-469h-469zM58 2399v468h468v-468h-468zM2399 2399v468h468v-468h-468zM58 2984v468h468v-468h-468zM2399 2984v468h468v-468h-468zM58 3569v468h468v-468h-468zM643 3569v468h468v-468h-468zM1228 3569v468h468v-468h-468zM1813 3569v468h469v-468h-469z
" />
    <glyph glyph-name="S" unicode="S" 
d="M643 58v468h468v-468h-468zM1228 58v468h468v-468h-468zM1813 58v468h469v-468h-469zM58 643v468h468v-468h-468zM2399 643v468h468v-468h-468zM2399 1228v468h468v-468h-468zM643 1813v469h468v-469h-468zM1228 1813v469h468v-469h-468zM1813 1813v469h469v-469h-469z
M58 2399v468h468v-468h-468zM58 2984v468h468v-468h-468zM2399 2984v468h468v-468h-468zM643 3569v468h468v-468h-468zM1228 3569v468h468v-468h-468zM1813 3569v468h469v-468h-469z" />
    <glyph glyph-name="T" unicode="T" 
d="M1228 58v468h468v-468h-468zM1228 643v468h468v-468h-468zM1228 1228v468h468v-468h-468zM1228 1813v469h468v-469h-468zM1228 2399v468h468v-468h-468zM1228 2984v468h468v-468h-468zM58 3569v468h468v-468h-468zM643 3569v468h468v-468h-468zM1228 3569v468h468v-468
h-468zM1813 3569v468h469v-468h-469zM2399 3569v468h468v-468h-468z" />
    <glyph glyph-name="U" unicode="U" 
d="M643 58v468h468v-468h-468zM1228 58v468h468v-468h-468zM1813 58v468h469v-468h-469zM58 643v468h468v-468h-468zM2399 643v468h468v-468h-468zM58 1228v468h468v-468h-468zM2399 1228v468h468v-468h-468zM58 1813v469h468v-469h-468zM2399 1813v469h468v-469h-468z
M58 2399v468h468v-468h-468zM2399 2399v468h468v-468h-468zM58 2984v468h468v-468h-468zM2399 2984v468h468v-468h-468zM58 3569v468h468v-468h-468zM2399 3569v468h468v-468h-468z" />
    <glyph glyph-name="V" unicode="V" 
d="M1228 58v468h468v-468h-468zM643 643v468h468v-468h-468zM1813 643v468h469v-468h-469zM58 1228v468h468v-468h-468zM2399 1228v468h468v-468h-468zM58 1813v469h468v-469h-468zM2399 1813v469h468v-469h-468zM58 2399v468h468v-468h-468zM2399 2399v468h468v-468h-468z
M58 2984v468h468v-468h-468zM2399 2984v468h468v-468h-468zM58 3569v468h468v-468h-468zM2399 3569v468h468v-468h-468z" />
    <glyph glyph-name="W" unicode="W" 
d="M643 58v468h468v-468h-468zM1813 58v468h469v-468h-469zM58 643v468h468v-468h-468zM1228 643v468h468v-468h-468zM2399 643v468h468v-468h-468zM58 1228v468h468v-468h-468zM1228 1228v468h468v-468h-468zM2399 1228v468h468v-468h-468zM58 1813v469h468v-469h-468z
M1228 1813v469h468v-469h-468zM2399 1813v469h468v-469h-468zM58 2399v468h468v-468h-468zM2399 2399v468h468v-468h-468zM58 2984v468h468v-468h-468zM2399 2984v468h468v-468h-468zM58 3569v468h468v-468h-468zM2399 3569v468h468v-468h-468z" />
    <glyph glyph-name="X" unicode="X" 
d="M58 58v468h468v-468h-468zM2399 58v468h468v-468h-468zM58 643v468h468v-468h-468zM2399 643v468h468v-468h-468zM643 1228v468h468v-468h-468zM1813 1228v468h469v-468h-469zM1228 1813v469h468v-469h-468zM643 2399v468h468v-468h-468zM1813 2399v468h469v-468h-469z
M58 2984v468h468v-468h-468zM2399 2984v468h468v-468h-468zM58 3569v468h468v-468h-468zM2399 3569v468h468v-468h-468z" />
    <glyph glyph-name="Y" unicode="Y" 
d="M1228 58v468h468v-468h-468zM1228 643v468h468v-468h-468zM1228 1228v468h468v-468h-468zM643 1813v469h468v-469h-468zM1813 1813v469h469v-469h-469zM58 2399v468h468v-468h-468zM2399 2399v468h468v-468h-468zM58 2984v468h468v-468h-468zM2399 2984v468h468v-468
h-468zM58 3569v468h468v-468h-468zM2399 3569v468h468v-468h-468z" />
    <glyph glyph-name="Z" unicode="Z" 
d="M58 58v468h468v-468h-468zM643 58v468h468v-468h-468zM1228 58v468h468v-468h-468zM1813 58v468h469v-468h-469zM2399 58v468h468v-468h-468zM58 643v468h468v-468h-468zM643 1228v468h468v-468h-468zM1228 1813v469h468v-469h-468zM1813 2399v468h469v-468h-469z
M2399 2984v468h468v-468h-468zM58 3569v468h468v-468h-468zM643 3569v468h468v-468h-468zM1228 3569v468h468v-468h-468zM1813 3569v468h469v-468h-469zM2399 3569v468h468v-468h-468z" />
    <glyph glyph-name="bracketleft" unicode="[" horiz-adv-x="2925" 
d="M643 58v468h468v-468h-468zM1228 58v468h468v-468h-468zM1813 58v468h469v-468h-469zM643 643v468h468v-468h-468zM643 1228v468h468v-468h-468zM643 1813v469h468v-469h-468zM643 2399v468h468v-468h-468zM643 2984v468h468v-468h-468zM643 3569v468h468v-468h-468z
M1228 3569v468h468v-468h-468zM1813 3569v468h469v-468h-469z" />
    <glyph glyph-name="backslash" unicode="\" 
d="M2399 643v468h468v-468h-468zM1813 1228v468h469v-468h-469zM1228 1813v469h468v-469h-468zM643 2399v468h468v-468h-468zM58 2984v468h468v-468h-468z" />
    <glyph glyph-name="bracketright" unicode="]" horiz-adv-x="2925" 
d="M643 58v468h468v-468h-468zM1228 58v468h468v-468h-468zM1813 58v468h469v-468h-469zM1813 643v468h469v-468h-469zM1813 1228v468h469v-468h-469zM1813 1813v469h469v-469h-469zM1813 2399v468h469v-468h-469zM1813 2984v468h469v-468h-469zM643 3569v468h468v-468h-468
zM1228 3569v468h468v-468h-468zM1813 3569v468h469v-468h-469z" />
    <glyph glyph-name="asciicircum" unicode="^" horiz-adv-x="2925" 
d="M643 2984v468h468v-468h-468zM1813 2984v468h469v-468h-469zM1228 3569v468h468v-468h-468z" />
    <glyph glyph-name="underscore" unicode="_" 
d="M58 58v468h468v-468h-468zM643 58v468h468v-468h-468zM1228 58v468h468v-468h-468zM1813 58v468h469v-468h-469zM2399 58v468h468v-468h-468z" />
    <glyph glyph-name="grave" unicode="`" horiz-adv-x="2340" 
d="M643 2399v468h468v-468h-468zM1228 2984v468h468v-468h-468zM643 3569v468h468v-468h-468zM1228 3569v468h468v-468h-468z" />
    <glyph glyph-name="a" unicode="a" 
d="M643 58v468h468v-468h-468zM1228 58v468h468v-468h-468zM1813 58v468h469v-468h-469zM2399 58v468h468v-468h-468zM58 643v468h468v-468h-468zM2399 643v468h468v-468h-468zM643 1228v468h468v-468h-468zM1228 1228v468h468v-468h-468zM1813 1228v468h469v-468h-469z
M2399 1228v468h468v-468h-468zM2399 1813v469h468v-469h-468zM58 2399v468h468v-468h-468zM643 2399v468h468v-468h-468zM1228 2399v468h468v-468h-468zM1813 2399v468h469v-468h-469z" />
    <glyph glyph-name="b" unicode="b" 
d="M58 58v468h468v-468h-468zM643 58v468h468v-468h-468zM1228 58v468h468v-468h-468zM1813 58v468h469v-468h-469zM58 643v468h468v-468h-468zM2399 643v468h468v-468h-468zM58 1228v468h468v-468h-468zM2399 1228v468h468v-468h-468zM58 1813v469h468v-469h-468z
M2399 1813v469h468v-469h-468zM58 2399v468h468v-468h-468zM643 2399v468h468v-468h-468zM1228 2399v468h468v-468h-468zM1813 2399v468h469v-468h-469zM58 2984v468h468v-468h-468zM58 3569v468h468v-468h-468z" />
    <glyph glyph-name="c" unicode="c" 
d="M643 58v468h468v-468h-468zM1228 58v468h468v-468h-468zM1813 58v468h469v-468h-469zM2399 58v468h468v-468h-468zM58 643v468h468v-468h-468zM58 1228v468h468v-468h-468zM58 1813v469h468v-469h-468zM643 2399v468h468v-468h-468zM1228 2399v468h468v-468h-468z
M1813 2399v468h469v-468h-469zM2399 2399v468h468v-468h-468z" />
    <glyph glyph-name="d" unicode="d" 
d="M643 58v468h468v-468h-468zM1228 58v468h468v-468h-468zM1813 58v468h469v-468h-469zM2399 58v468h468v-468h-468zM58 643v468h468v-468h-468zM2399 643v468h468v-468h-468zM58 1228v468h468v-468h-468zM2399 1228v468h468v-468h-468zM58 1813v469h468v-469h-468z
M2399 1813v469h468v-469h-468zM643 2399v468h468v-468h-468zM1228 2399v468h468v-468h-468zM1813 2399v468h469v-468h-469zM2399 2399v468h468v-468h-468zM2399 2984v468h468v-468h-468zM2399 3569v468h468v-468h-468z" />
    <glyph glyph-name="e" unicode="e" 
d="M643 58v468h468v-468h-468zM1228 58v468h468v-468h-468zM1813 58v468h469v-468h-469zM2399 58v468h468v-468h-468zM58 643v468h468v-468h-468zM58 1228v468h468v-468h-468zM643 1228v468h468v-468h-468zM1228 1228v468h468v-468h-468zM1813 1228v468h469v-468h-469z
M2399 1228v468h468v-468h-468zM58 1813v469h468v-469h-468zM2399 1813v469h468v-469h-468zM643 2399v468h468v-468h-468zM1228 2399v468h468v-468h-468zM1813 2399v468h469v-468h-469z" />
    <glyph glyph-name="f" unicode="f" 
d="M1228 58v468h468v-468h-468zM1228 643v468h468v-468h-468zM1228 1228v468h468v-468h-468zM58 1813v469h468v-469h-468zM643 1813v469h468v-469h-468zM1228 1813v469h468v-469h-468zM1813 1813v469h469v-469h-469zM2399 1813v469h468v-469h-468zM1228 2399v468h468v-468
h-468zM1228 2984v468h468v-468h-468zM1813 3569v468h469v-468h-469zM2399 3569v468h468v-468h-468z" />
    <glyph glyph-name="g" unicode="g" 
d="M643 58v468h468v-468h-468zM1228 58v468h468v-468h-468zM1813 58v468h469v-468h-469zM2399 643v468h468v-468h-468zM643 1228v468h468v-468h-468zM1228 1228v468h468v-468h-468zM1813 1228v468h469v-468h-469zM2399 1228v468h468v-468h-468zM58 1813v469h468v-469h-468z
M2399 1813v469h468v-469h-468zM643 2399v468h468v-468h-468zM1228 2399v468h468v-468h-468zM1813 2399v468h469v-468h-469zM2399 2399v468h468v-468h-468z" />
    <glyph glyph-name="h" unicode="h" 
d="M58 58v468h468v-468h-468zM2399 58v468h468v-468h-468zM58 643v468h468v-468h-468zM2399 643v468h468v-468h-468zM58 1228v468h468v-468h-468zM2399 1228v468h468v-468h-468zM58 1813v469h468v-469h-468zM2399 1813v469h468v-469h-468zM58 2399v468h468v-468h-468z
M643 2399v468h468v-468h-468zM1228 2399v468h468v-468h-468zM1813 2399v468h469v-468h-469zM58 2984v468h468v-468h-468zM58 3569v468h468v-468h-468z" />
    <glyph glyph-name="i" unicode="i" horiz-adv-x="2925" 
d="M643 58v468h468v-468h-468zM1228 58v468h468v-468h-468zM1813 58v468h469v-468h-469zM1228 643v468h468v-468h-468zM1228 1228v468h468v-468h-468zM1228 1813v469h468v-469h-468zM643 2399v468h468v-468h-468zM1228 2399v468h468v-468h-468zM1228 3569v468h468v-468h-468
z" />
    <glyph glyph-name="j" unicode="j" horiz-adv-x="2340" 
d="M58 58v468h468v-468h-468zM643 58v468h468v-468h-468zM1228 643v468h468v-468h-468zM1228 1228v468h468v-468h-468zM1228 1813v469h468v-469h-468zM643 2399v468h468v-468h-468zM1228 2399v468h468v-468h-468zM1228 3569v468h468v-468h-468z" />
    <glyph glyph-name="k" unicode="k" horiz-adv-x="2925" 
d="M58 58v468h468v-468h-468zM1813 58v468h469v-468h-469zM58 643v468h468v-468h-468zM1228 643v468h468v-468h-468zM58 1228v468h468v-468h-468zM643 1228v468h468v-468h-468zM58 1813v469h468v-469h-468zM1228 1813v469h468v-469h-468zM58 2399v468h468v-468h-468z
M1813 2399v468h469v-468h-469zM58 2984v468h468v-468h-468zM58 3569v468h468v-468h-468z" />
    <glyph glyph-name="l" unicode="l" horiz-adv-x="2925" 
d="M643 58v468h468v-468h-468zM1228 58v468h468v-468h-468zM1813 58v468h469v-468h-469zM1228 643v468h468v-468h-468zM1228 1228v468h468v-468h-468zM1228 1813v469h468v-469h-468zM1228 2399v468h468v-468h-468zM1228 2984v468h468v-468h-468zM643 3569v468h468v-468h-468
zM1228 3569v468h468v-468h-468z" />
    <glyph glyph-name="m" unicode="m" 
d="M58 58v468h468v-468h-468zM1228 58v468h468v-468h-468zM2399 58v468h468v-468h-468zM58 643v468h468v-468h-468zM1228 643v468h468v-468h-468zM2399 643v468h468v-468h-468zM58 1228v468h468v-468h-468zM1228 1228v468h468v-468h-468zM2399 1228v468h468v-468h-468z
M58 1813v469h468v-469h-468zM1228 1813v469h468v-469h-468zM2399 1813v469h468v-469h-468zM58 2399v468h468v-468h-468zM643 2399v468h468v-468h-468zM1813 2399v468h469v-468h-469z" />
    <glyph glyph-name="n" unicode="n" 
d="M58 58v468h468v-468h-468zM2399 58v468h468v-468h-468zM58 643v468h468v-468h-468zM2399 643v468h468v-468h-468zM58 1228v468h468v-468h-468zM2399 1228v468h468v-468h-468zM58 1813v469h468v-469h-468zM2399 1813v469h468v-469h-468zM58 2399v468h468v-468h-468z
M643 2399v468h468v-468h-468zM1228 2399v468h468v-468h-468zM1813 2399v468h469v-468h-469z" />
    <glyph glyph-name="o" unicode="o" 
d="M643 58v468h468v-468h-468zM1228 58v468h468v-468h-468zM1813 58v468h469v-468h-469zM58 643v468h468v-468h-468zM2399 643v468h468v-468h-468zM58 1228v468h468v-468h-468zM2399 1228v468h468v-468h-468zM58 1813v469h468v-469h-468zM2399 1813v469h468v-469h-468z
M643 2399v468h468v-468h-468zM1228 2399v468h468v-468h-468zM1813 2399v468h469v-468h-469z" />
    <glyph glyph-name="p" unicode="p" 
d="M58 58v468h468v-468h-468zM58 643v468h468v-468h-468zM58 1228v468h468v-468h-468zM643 1228v468h468v-468h-468zM1228 1228v468h468v-468h-468zM1813 1228v468h469v-468h-469zM58 1813v469h468v-469h-468zM2399 1813v469h468v-469h-468zM58 2399v468h468v-468h-468z
M643 2399v468h468v-468h-468zM1228 2399v468h468v-468h-468zM1813 2399v468h469v-468h-469z" />
    <glyph glyph-name="q" unicode="q" 
d="M2399 58v468h468v-468h-468zM2399 643v468h468v-468h-468zM643 1228v468h468v-468h-468zM1228 1228v468h468v-468h-468zM1813 1228v468h469v-468h-469zM2399 1228v468h468v-468h-468zM58 1813v469h468v-469h-468zM2399 1813v469h468v-469h-468zM643 2399v468h468v-468
h-468zM1228 2399v468h468v-468h-468zM1813 2399v468h469v-468h-469zM2399 2399v468h468v-468h-468z" />
    <glyph glyph-name="r" unicode="r" horiz-adv-x="2925" 
d="M58 58v468h468v-468h-468zM58 643v468h468v-468h-468zM58 1228v468h468v-468h-468zM58 1813v469h468v-469h-468zM643 1813v469h468v-469h-468zM58 2399v468h468v-468h-468zM1228 2399v468h468v-468h-468zM1813 2399v468h469v-468h-469z" />
    <glyph glyph-name="s" unicode="s" 
d="M58 58v468h468v-468h-468zM643 58v468h468v-468h-468zM1228 58v468h468v-468h-468zM1813 58v468h469v-468h-469zM2399 643v468h468v-468h-468zM643 1228v468h468v-468h-468zM1228 1228v468h468v-468h-468zM1813 1228v468h469v-468h-469zM58 1813v469h468v-469h-468z
M643 2399v468h468v-468h-468zM1228 2399v468h468v-468h-468zM1813 2399v468h469v-468h-469zM2399 2399v468h468v-468h-468z" />
    <glyph glyph-name="t" unicode="t" 
d="M1813 58v468h469v-468h-469zM2399 58v468h468v-468h-468zM1228 643v468h468v-468h-468zM1228 1228v468h468v-468h-468zM1228 1813v469h468v-469h-468zM58 2399v468h468v-468h-468zM643 2399v468h468v-468h-468zM1228 2399v468h468v-468h-468zM1813 2399v468h469v-468
h-469zM2399 2399v468h468v-468h-468zM1228 2984v468h468v-468h-468zM1228 3569v468h468v-468h-468z" />
    <glyph glyph-name="u" unicode="u" 
d="M643 58v468h468v-468h-468zM1228 58v468h468v-468h-468zM1813 58v468h469v-468h-469zM2399 58v468h468v-468h-468zM58 643v468h468v-468h-468zM2399 643v468h468v-468h-468zM58 1228v468h468v-468h-468zM2399 1228v468h468v-468h-468zM58 1813v469h468v-469h-468z
M2399 1813v469h468v-469h-468zM58 2399v468h468v-468h-468zM2399 2399v468h468v-468h-468z" />
    <glyph glyph-name="v" unicode="v" 
d="M1228 58v468h468v-468h-468zM643 643v468h468v-468h-468zM1813 643v468h469v-468h-469zM58 1228v468h468v-468h-468zM2399 1228v468h468v-468h-468zM58 1813v469h468v-469h-468zM2399 1813v469h468v-469h-468zM58 2399v468h468v-468h-468zM2399 2399v468h468v-468h-468z
" />
    <glyph glyph-name="w" unicode="w" 
d="M643 58v468h468v-468h-468zM1813 58v468h469v-468h-469zM58 643v468h468v-468h-468zM1228 643v468h468v-468h-468zM2399 643v468h468v-468h-468zM58 1228v468h468v-468h-468zM1228 1228v468h468v-468h-468zM2399 1228v468h468v-468h-468zM58 1813v469h468v-469h-468z
M2399 1813v469h468v-469h-468zM58 2399v468h468v-468h-468zM2399 2399v468h468v-468h-468z" />
    <glyph glyph-name="x" unicode="x" 
d="M58 58v468h468v-468h-468zM2399 58v468h468v-468h-468zM643 643v468h468v-468h-468zM1813 643v468h469v-468h-469zM1228 1228v468h468v-468h-468zM643 1813v469h468v-469h-468zM1813 1813v469h469v-469h-469zM58 2399v468h468v-468h-468zM2399 2399v468h468v-468h-468z
" />
    <glyph glyph-name="y" unicode="y" 
d="M643 58v468h468v-468h-468zM1228 58v468h468v-468h-468zM1813 58v468h469v-468h-469zM2399 643v468h468v-468h-468zM643 1228v468h468v-468h-468zM1228 1228v468h468v-468h-468zM1813 1228v468h469v-468h-469zM2399 1228v468h468v-468h-468zM58 1813v469h468v-469h-468z
M2399 1813v469h468v-469h-468zM58 2399v468h468v-468h-468zM2399 2399v468h468v-468h-468z" />
    <glyph glyph-name="z" unicode="z" 
d="M58 58v468h468v-468h-468zM643 58v468h468v-468h-468zM1228 58v468h468v-468h-468zM1813 58v468h469v-468h-469zM2399 58v468h468v-468h-468zM643 643v468h468v-468h-468zM1228 1228v468h468v-468h-468zM1813 1813v469h469v-469h-469zM58 2399v468h468v-468h-468z
M643 2399v468h468v-468h-468zM1228 2399v468h468v-468h-468zM1813 2399v468h469v-468h-469zM2399 2399v468h468v-468h-468z" />
    <glyph glyph-name="braceleft" unicode="{" horiz-adv-x="2925" 
d="M1813 58v468h469v-468h-469zM1228 643v468h468v-468h-468zM1228 1228v468h468v-468h-468zM643 1813v469h468v-469h-468zM1228 2399v468h468v-468h-468zM1228 2984v468h468v-468h-468zM1813 3569v468h469v-468h-469z" />
    <glyph glyph-name="bar" unicode="|" horiz-adv-x="2340" 
d="M1228 58v468h468v-468h-468zM1228 643v468h468v-468h-468zM1228 1228v468h468v-468h-468zM1228 1813v469h468v-469h-468zM1228 2399v468h468v-468h-468zM1228 2984v468h468v-468h-468zM1228 3569v468h468v-468h-468z" />
    <glyph glyph-name="braceright" unicode="}" horiz-adv-x="2925" 
d="M643 58v468h468v-468h-468zM1228 643v468h468v-468h-468zM1228 1228v468h468v-468h-468zM1813 1813v469h469v-469h-469zM1228 2399v468h468v-468h-468zM1228 2984v468h468v-468h-468zM643 3569v468h468v-468h-468z" />
    <glyph glyph-name="asciitilde" unicode="~" 
d="M1813 1228v468h469v-468h-469zM58 1813v469h468v-469h-468zM1228 1813v469h468v-469h-468zM2399 1813v469h468v-469h-468zM643 2399v468h468v-468h-468z" />
    <glyph glyph-name="sterling" unicode="&#xa3;" 
d="M58 58v468h468v-468h-468zM643 58v468h468v-468h-468zM1228 58v468h468v-468h-468zM1813 58v468h469v-468h-469zM2399 58v468h468v-468h-468zM58 643v468h468v-468h-468zM643 1228v468h468v-468h-468zM58 1813v469h468v-469h-468zM643 1813v469h468v-469h-468zM1228 1813
v469h468v-469h-468zM1813 1813v469h469v-469h-469zM643 2399v468h468v-468h-468zM643 2984v468h468v-468h-468zM2399 2984v468h468v-468h-468zM1228 3569v468h468v-468h-468zM1813 3569v468h469v-468h-469z" />
    <glyph glyph-name="currency" unicode="&#xa4;" 
d="M58 58v468h468v-468h-468zM2399 58v468h468v-468h-468zM643 643v468h468v-468h-468zM1228 643v468h468v-468h-468zM1813 643v468h469v-468h-469zM58 1228v468h468v-468h-468zM2399 1228v468h468v-468h-468zM58 1813v469h468v-469h-468zM2399 1813v469h468v-469h-468z
M58 2399v468h468v-468h-468zM2399 2399v468h468v-468h-468zM643 2984v468h468v-468h-468zM1228 2984v468h468v-468h-468zM1813 2984v468h469v-468h-469zM58 3569v468h468v-468h-468zM2399 3569v468h468v-468h-468z" />
    <glyph glyph-name="yen" unicode="&#xa5;" 
d="M1228 58v468h468v-468h-468zM643 643v468h468v-468h-468zM1228 643v468h468v-468h-468zM1813 643v468h469v-468h-469zM1228 1228v468h468v-468h-468zM643 1813v469h468v-469h-468zM1228 1813v469h468v-469h-468zM1813 1813v469h469v-469h-469zM1228 2399v468h468v-468
h-468zM643 2984v468h468v-468h-468zM1813 2984v468h469v-468h-469zM58 3569v468h468v-468h-468zM2399 3569v468h468v-468h-468z" />
    <glyph glyph-name="section" unicode="&#xa7;" horiz-adv-x="2925" 
d="M643 58v468h468v-468h-468zM1228 58v468h468v-468h-468zM1813 58v468h469v-468h-469zM1813 643v468h469v-468h-469zM1228 1228v468h468v-468h-468zM1813 1228v468h469v-468h-469zM643 1813v469h468v-469h-468zM1813 1813v469h469v-469h-469zM643 2399v468h468v-468h-468z
M1228 2399v468h468v-468h-468zM643 2984v468h468v-468h-468zM643 3569v468h468v-468h-468zM1228 3569v468h468v-468h-468zM1813 3569v468h469v-468h-469z" />
    <glyph glyph-name="guillemotleft" unicode="&#xab;" 
d="M643 643v468h468v-468h-468zM2399 643v468h468v-468h-468zM58 1228v468h468v-468h-468zM1813 1228v468h469v-468h-469zM58 1813v469h468v-469h-468zM1813 1813v469h469v-469h-469zM58 2399v468h468v-468h-468zM1813 2399v468h469v-468h-469zM643 2984v468h468v-468h-468z
M2399 2984v468h468v-468h-468z" />
    <glyph glyph-name="logicalnot" unicode="&#xac;" 
d="M2399 1228v468h468v-468h-468zM2399 1813v469h468v-469h-468zM58 2399v468h468v-468h-468zM643 2399v468h468v-468h-468zM1228 2399v468h468v-468h-468zM1813 2399v468h469v-468h-469zM2399 2399v468h468v-468h-468z" />
    <glyph glyph-name="degree" unicode="&#xb0;" horiz-adv-x="2925" 
d="M1228 2399v468h468v-468h-468zM643 2984v468h468v-468h-468zM1813 2984v468h469v-468h-469zM1228 3569v468h468v-468h-468z" />
    <glyph glyph-name="plusminus" unicode="&#xb1;" 
d="M58 58v468h468v-468h-468zM643 58v468h468v-468h-468zM1228 58v468h468v-468h-468zM1813 58v468h469v-468h-469zM2399 58v468h468v-468h-468zM1228 1228v468h468v-468h-468zM1228 1813v469h468v-469h-468zM58 2399v468h468v-468h-468zM643 2399v468h468v-468h-468z
M1228 2399v468h468v-468h-468zM1813 2399v468h469v-468h-469zM2399 2399v468h468v-468h-468zM1228 2984v468h468v-468h-468zM1228 3569v468h468v-468h-468z" />
    <glyph glyph-name="guillemotright" unicode="&#xbb;" 
d="M58 643v468h468v-468h-468zM1813 643v468h469v-468h-469zM643 1228v468h468v-468h-468zM2399 1228v468h468v-468h-468zM643 1813v469h468v-469h-468zM2399 1813v469h468v-469h-468zM643 2399v468h468v-468h-468zM2399 2399v468h468v-468h-468zM58 2984v468h468v-468h-468
zM1813 2984v468h469v-468h-469z" />
    <glyph glyph-name="uni0410" unicode="&#x410;" 
d="M58 58v468h468v-468h-468zM2399 58v468h468v-468h-468zM58 643v468h468v-468h-468zM2399 643v468h468v-468h-468zM58 1228v468h468v-468h-468zM643 1228v468h468v-468h-468zM1228 1228v468h468v-468h-468zM1813 1228v468h469v-468h-469zM2399 1228v468h468v-468h-468z
M58 1813v469h468v-469h-468zM2399 1813v469h468v-469h-468zM58 2399v468h468v-468h-468zM2399 2399v468h468v-468h-468zM643 2984v468h468v-468h-468zM1813 2984v468h469v-468h-469zM1228 3569v468h468v-468h-468z" />
    <glyph glyph-name="uni0411" unicode="&#x411;" 
d="M58 58v468h468v-468h-468zM643 58v468h468v-468h-468zM1228 58v468h468v-468h-468zM1813 58v468h469v-468h-469zM58 643v468h468v-468h-468zM2399 643v468h468v-468h-468zM58 1228v468h468v-468h-468zM2399 1228v468h468v-468h-468zM58 1813v469h468v-469h-468z
M2399 1813v469h468v-469h-468zM58 2399v468h468v-468h-468zM643 2399v468h468v-468h-468zM1228 2399v468h468v-468h-468zM1813 2399v468h469v-468h-469zM58 2984v468h468v-468h-468zM58 3569v468h468v-468h-468zM643 3569v468h468v-468h-468zM1228 3569v468h468v-468h-468z
M1813 3569v468h469v-468h-469zM2399 3569v468h468v-468h-468z" />
    <glyph glyph-name="uni0412" unicode="&#x412;" 
d="M58 58v468h468v-468h-468zM643 58v468h468v-468h-468zM1228 58v468h468v-468h-468zM1813 58v468h469v-468h-469zM58 643v468h468v-468h-468zM2399 643v468h468v-468h-468zM58 1228v468h468v-468h-468zM2399 1228v468h468v-468h-468zM58 1813v469h468v-469h-468zM643 1813
v469h468v-469h-468zM1228 1813v469h468v-469h-468zM1813 1813v469h469v-469h-469zM58 2399v468h468v-468h-468zM2399 2399v468h468v-468h-468zM58 2984v468h468v-468h-468zM2399 2984v468h468v-468h-468zM58 3569v468h468v-468h-468zM643 3569v468h468v-468h-468zM1228 3569
v468h468v-468h-468zM1813 3569v468h469v-468h-469z" />
    <glyph glyph-name="uni0413" unicode="&#x413;" 
d="M58 58v468h468v-468h-468zM58 643v468h468v-468h-468zM58 1228v468h468v-468h-468zM58 1813v469h468v-469h-468zM58 2399v468h468v-468h-468zM58 2984v468h468v-468h-468zM58 3569v468h468v-468h-468zM643 3569v468h468v-468h-468zM1228 3569v468h468v-468h-468z
M1813 3569v468h469v-468h-469zM2399 3569v468h468v-468h-468z" />
    <glyph glyph-name="uni0414" unicode="&#x414;" 
d="M58 58v468h468v-468h-468zM2399 58v468h468v-468h-468zM58 643v468h468v-468h-468zM643 643v468h468v-468h-468zM1228 643v468h468v-468h-468zM1813 643v468h469v-468h-469zM2399 643v468h468v-468h-468zM643 1228v468h468v-468h-468zM1813 1228v468h469v-468h-469z
M643 1813v469h468v-469h-468zM1813 1813v469h469v-469h-469zM643 2399v468h468v-468h-468zM1813 2399v468h469v-468h-469zM643 2984v468h468v-468h-468zM1813 2984v468h469v-468h-469zM643 3569v468h468v-468h-468zM1228 3569v468h468v-468h-468zM1813 3569v468h469v-468
h-469z" />
    <glyph glyph-name="uni0415" unicode="&#x415;" 
d="M58 58v468h468v-468h-468zM643 58v468h468v-468h-468zM1228 58v468h468v-468h-468zM1813 58v468h469v-468h-469zM2399 58v468h468v-468h-468zM58 643v468h468v-468h-468zM58 1228v468h468v-468h-468zM58 1813v469h468v-469h-468zM643 1813v469h468v-469h-468zM1228 1813
v469h468v-469h-468zM1813 1813v469h469v-469h-469zM2399 1813v469h468v-469h-468zM58 2399v468h468v-468h-468zM58 2984v468h468v-468h-468zM58 3569v468h468v-468h-468zM643 3569v468h468v-468h-468zM1228 3569v468h468v-468h-468zM1813 3569v468h469v-468h-469zM2399 3569
v468h468v-468h-468z" />
    <glyph glyph-name="uni0416" unicode="&#x416;" 
d="M58 58v468h468v-468h-468zM1228 58v468h468v-468h-468zM2399 58v468h468v-468h-468zM58 643v468h468v-468h-468zM1228 643v468h468v-468h-468zM2399 643v468h468v-468h-468zM58 1228v468h468v-468h-468zM1228 1228v468h468v-468h-468zM2399 1228v468h468v-468h-468z
M643 1813v469h468v-469h-468zM1228 1813v469h468v-469h-468zM1813 1813v469h469v-469h-469zM643 2399v468h468v-468h-468zM1228 2399v468h468v-468h-468zM1813 2399v468h469v-468h-469zM58 2984v468h468v-468h-468zM1228 2984v468h468v-468h-468zM2399 2984v468h468v-468
h-468zM58 3569v468h468v-468h-468zM1228 3569v468h468v-468h-468zM2399 3569v468h468v-468h-468z" />
    <glyph glyph-name="uni0417" unicode="&#x417;" 
d="M643 58v468h468v-468h-468zM1228 58v468h468v-468h-468zM1813 58v468h469v-468h-469zM58 643v468h468v-468h-468zM2399 643v468h468v-468h-468zM2399 1228v468h468v-468h-468zM1228 1813v469h468v-469h-468zM1813 1813v469h469v-469h-469zM2399 2399v468h468v-468h-468z
M58 2984v468h468v-468h-468zM2399 2984v468h468v-468h-468zM643 3569v468h468v-468h-468zM1228 3569v468h468v-468h-468zM1813 3569v468h469v-468h-469z" />
    <glyph glyph-name="uni0418" unicode="&#x418;" 
d="M58 58v468h468v-468h-468zM2399 58v468h468v-468h-468zM58 643v468h468v-468h-468zM2399 643v468h468v-468h-468zM58 1228v468h468v-468h-468zM643 1228v468h468v-468h-468zM2399 1228v468h468v-468h-468zM58 1813v469h468v-469h-468zM1228 1813v469h468v-469h-468z
M2399 1813v469h468v-469h-468zM58 2399v468h468v-468h-468zM1813 2399v468h469v-468h-469zM2399 2399v468h468v-468h-468zM58 2984v468h468v-468h-468zM2399 2984v468h468v-468h-468zM58 3569v468h468v-468h-468zM2399 3569v468h468v-468h-468z" />
    <glyph glyph-name="uni0419" unicode="&#x419;" 
d="M58 58v468h468v-468h-468zM2399 58v468h468v-468h-468zM58 643v468h468v-468h-468zM2399 643v468h468v-468h-468zM58 1228v468h468v-468h-468zM643 1228v468h468v-468h-468zM2399 1228v468h468v-468h-468zM58 1813v469h468v-469h-468zM1228 1813v469h468v-469h-468z
M2399 1813v469h468v-469h-468zM58 2399v468h468v-468h-468zM1813 2399v468h469v-468h-469zM2399 2399v468h468v-468h-468zM58 2984v468h468v-468h-468zM1228 2984v468h468v-468h-468zM2399 2984v468h468v-468h-468zM58 3569v468h468v-468h-468zM1228 3569v468h468v-468h-468
zM2399 3569v468h468v-468h-468z" />
    <glyph glyph-name="uni041A" unicode="&#x41a;" 
d="M58 58v468h468v-468h-468zM2399 58v468h468v-468h-468zM58 643v468h468v-468h-468zM1813 643v468h469v-468h-469zM58 1228v468h468v-468h-468zM1228 1228v468h468v-468h-468zM58 1813v469h468v-469h-468zM643 1813v469h468v-469h-468zM58 2399v468h468v-468h-468z
M1228 2399v468h468v-468h-468zM58 2984v468h468v-468h-468zM1813 2984v468h469v-468h-469zM58 3569v468h468v-468h-468zM2399 3569v468h468v-468h-468z" />
    <glyph glyph-name="uni041B" unicode="&#x41b;" 
d="M643 58v468h468v-468h-468zM2399 58v468h468v-468h-468zM58 643v468h468v-468h-468zM1228 643v468h468v-468h-468zM2399 643v468h468v-468h-468zM1228 1228v468h468v-468h-468zM2399 1228v468h468v-468h-468zM1228 1813v469h468v-469h-468zM2399 1813v469h468v-469h-468z
M1228 2399v468h468v-468h-468zM2399 2399v468h468v-468h-468zM1228 2984v468h468v-468h-468zM2399 2984v468h468v-468h-468zM643 3569v468h468v-468h-468zM1228 3569v468h468v-468h-468zM1813 3569v468h469v-468h-469zM2399 3569v468h468v-468h-468z" />
    <glyph glyph-name="uni041C" unicode="&#x41c;" 
d="M58 58v468h468v-468h-468zM2399 58v468h468v-468h-468zM58 643v468h468v-468h-468zM2399 643v468h468v-468h-468zM58 1228v468h468v-468h-468zM2399 1228v468h468v-468h-468zM58 1813v469h468v-469h-468zM1228 1813v469h468v-469h-468zM2399 1813v469h468v-469h-468z
M58 2399v468h468v-468h-468zM1228 2399v468h468v-468h-468zM2399 2399v468h468v-468h-468zM58 2984v468h468v-468h-468zM643 2984v468h468v-468h-468zM1813 2984v468h469v-468h-469zM2399 2984v468h468v-468h-468zM58 3569v468h468v-468h-468zM2399 3569v468h468v-468h-468z
" />
    <glyph glyph-name="uni041D" unicode="&#x41d;" 
d="M58 58v468h468v-468h-468zM2399 58v468h468v-468h-468zM58 643v468h468v-468h-468zM2399 643v468h468v-468h-468zM58 1228v468h468v-468h-468zM2399 1228v468h468v-468h-468zM58 1813v469h468v-469h-468zM643 1813v469h468v-469h-468zM1228 1813v469h468v-469h-468z
M1813 1813v469h469v-469h-469zM2399 1813v469h468v-469h-468zM58 2399v468h468v-468h-468zM2399 2399v468h468v-468h-468zM58 2984v468h468v-468h-468zM2399 2984v468h468v-468h-468zM58 3569v468h468v-468h-468zM2399 3569v468h468v-468h-468z" />
    <glyph glyph-name="uni041E" unicode="&#x41e;" 
d="M643 58v468h468v-468h-468zM1228 58v468h468v-468h-468zM1813 58v468h469v-468h-469zM58 643v468h468v-468h-468zM2399 643v468h468v-468h-468zM58 1228v468h468v-468h-468zM2399 1228v468h468v-468h-468zM58 1813v469h468v-469h-468zM2399 1813v469h468v-469h-468z
M58 2399v468h468v-468h-468zM2399 2399v468h468v-468h-468zM58 2984v468h468v-468h-468zM2399 2984v468h468v-468h-468zM643 3569v468h468v-468h-468zM1228 3569v468h468v-468h-468zM1813 3569v468h469v-468h-469z" />
    <glyph glyph-name="uni041F" unicode="&#x41f;" 
d="M58 58v468h468v-468h-468zM2399 58v468h468v-468h-468zM58 643v468h468v-468h-468zM2399 643v468h468v-468h-468zM58 1228v468h468v-468h-468zM2399 1228v468h468v-468h-468zM58 1813v469h468v-469h-468zM2399 1813v469h468v-469h-468zM58 2399v468h468v-468h-468z
M2399 2399v468h468v-468h-468zM58 2984v468h468v-468h-468zM2399 2984v468h468v-468h-468zM58 3569v468h468v-468h-468zM643 3569v468h468v-468h-468zM1228 3569v468h468v-468h-468zM1813 3569v468h469v-468h-469zM2399 3569v468h468v-468h-468z" />
    <glyph glyph-name="uni0420" unicode="&#x420;" 
d="M58 58v468h468v-468h-468zM58 643v468h468v-468h-468zM58 1228v468h468v-468h-468zM58 1813v469h468v-469h-468zM643 1813v469h468v-469h-468zM1228 1813v469h468v-469h-468zM1813 1813v469h469v-469h-469zM58 2399v468h468v-468h-468zM2399 2399v468h468v-468h-468z
M58 2984v468h468v-468h-468zM2399 2984v468h468v-468h-468zM58 3569v468h468v-468h-468zM643 3569v468h468v-468h-468zM1228 3569v468h468v-468h-468zM1813 3569v468h469v-468h-469z" />
    <glyph glyph-name="uni0421" unicode="&#x421;" 
d="M643 58v468h468v-468h-468zM1228 58v468h468v-468h-468zM1813 58v468h469v-468h-469zM58 643v468h468v-468h-468zM2399 643v468h468v-468h-468zM58 1228v468h468v-468h-468zM58 1813v469h468v-469h-468zM58 2399v468h468v-468h-468zM58 2984v468h468v-468h-468z
M2399 2984v468h468v-468h-468zM643 3569v468h468v-468h-468zM1228 3569v468h468v-468h-468zM1813 3569v468h469v-468h-469z" />
    <glyph glyph-name="uni0422" unicode="&#x422;" 
d="M1228 58v468h468v-468h-468zM1228 643v468h468v-468h-468zM1228 1228v468h468v-468h-468zM1228 1813v469h468v-469h-468zM1228 2399v468h468v-468h-468zM1228 2984v468h468v-468h-468zM58 3569v468h468v-468h-468zM643 3569v468h468v-468h-468zM1228 3569v468h468v-468
h-468zM1813 3569v468h469v-468h-469zM2399 3569v468h468v-468h-468z" />
    <glyph glyph-name="uni0423" unicode="&#x423;" 
d="M643 58v468h468v-468h-468zM1228 58v468h468v-468h-468zM1813 58v468h469v-468h-469zM58 643v468h468v-468h-468zM2399 643v468h468v-468h-468zM2399 1228v468h468v-468h-468zM643 1813v469h468v-469h-468zM1228 1813v469h468v-469h-468zM1813 1813v469h469v-469h-469z
M2399 1813v469h468v-469h-468zM58 2399v468h468v-468h-468zM2399 2399v468h468v-468h-468zM58 2984v468h468v-468h-468zM2399 2984v468h468v-468h-468zM58 3569v468h468v-468h-468zM2399 3569v468h468v-468h-468z" />
    <glyph glyph-name="uni0424" unicode="&#x424;" 
d="M1228 58v468h468v-468h-468zM643 643v468h468v-468h-468zM1228 643v468h468v-468h-468zM1813 643v468h469v-468h-469zM58 1228v468h468v-468h-468zM1228 1228v468h468v-468h-468zM2399 1228v468h468v-468h-468zM58 1813v469h468v-469h-468zM1228 1813v469h468v-469h-468z
M2399 1813v469h468v-469h-468zM58 2399v468h468v-468h-468zM1228 2399v468h468v-468h-468zM2399 2399v468h468v-468h-468zM58 2984v468h468v-468h-468zM1228 2984v468h468v-468h-468zM2399 2984v468h468v-468h-468zM643 3569v468h468v-468h-468zM1228 3569v468h468v-468
h-468zM1813 3569v468h469v-468h-469z" />
    <glyph glyph-name="uni0425" unicode="&#x425;" 
d="M58 58v468h468v-468h-468zM2399 58v468h468v-468h-468zM58 643v468h468v-468h-468zM2399 643v468h468v-468h-468zM643 1228v468h468v-468h-468zM1813 1228v468h469v-468h-469zM1228 1813v469h468v-469h-468zM643 2399v468h468v-468h-468zM1813 2399v468h469v-468h-469z
M58 2984v468h468v-468h-468zM2399 2984v468h468v-468h-468zM58 3569v468h468v-468h-468zM2399 3569v468h468v-468h-468z" />
    <glyph glyph-name="uni0426" unicode="&#x426;" 
d="M2399 58v468h468v-468h-468zM58 643v468h468v-468h-468zM643 643v468h468v-468h-468zM1228 643v468h468v-468h-468zM1813 643v468h469v-468h-469zM2399 643v468h468v-468h-468zM58 1228v468h468v-468h-468zM1813 1228v468h469v-468h-469zM58 1813v469h468v-469h-468z
M1813 1813v469h469v-469h-469zM58 2399v468h468v-468h-468zM1813 2399v468h469v-468h-469zM58 2984v468h468v-468h-468zM1813 2984v468h469v-468h-469zM58 3569v468h468v-468h-468zM1813 3569v468h469v-468h-469z" />
    <glyph glyph-name="uni0427" unicode="&#x427;" 
d="M2399 58v468h468v-468h-468zM2399 643v468h468v-468h-468zM2399 1228v468h468v-468h-468zM643 1813v469h468v-469h-468zM1228 1813v469h468v-469h-468zM1813 1813v469h469v-469h-469zM2399 1813v469h468v-469h-468zM58 2399v468h468v-468h-468zM2399 2399v468h468v-468
h-468zM58 2984v468h468v-468h-468zM2399 2984v468h468v-468h-468zM58 3569v468h468v-468h-468zM2399 3569v468h468v-468h-468z" />
    <glyph glyph-name="uni0428" unicode="&#x428;" 
d="M58 58v468h468v-468h-468zM643 58v468h468v-468h-468zM1228 58v468h468v-468h-468zM1813 58v468h469v-468h-469zM2399 58v468h468v-468h-468zM58 643v468h468v-468h-468zM1228 643v468h468v-468h-468zM2399 643v468h468v-468h-468zM58 1228v468h468v-468h-468zM1228 1228
v468h468v-468h-468zM2399 1228v468h468v-468h-468zM58 1813v469h468v-469h-468zM1228 1813v469h468v-469h-468zM2399 1813v469h468v-469h-468zM58 2399v468h468v-468h-468zM1228 2399v468h468v-468h-468zM2399 2399v468h468v-468h-468zM58 2984v468h468v-468h-468z
M1228 2984v468h468v-468h-468zM2399 2984v468h468v-468h-468zM58 3569v468h468v-468h-468zM1228 3569v468h468v-468h-468zM2399 3569v468h468v-468h-468z" />
    <glyph glyph-name="uni0429" unicode="&#x429;" 
d="M2399 58v468h468v-468h-468zM58 643v468h468v-468h-468zM643 643v468h468v-468h-468zM1228 643v468h468v-468h-468zM1813 643v468h469v-468h-469zM2399 643v468h468v-468h-468zM58 1228v468h468v-468h-468zM1228 1228v468h468v-468h-468zM2399 1228v468h468v-468h-468z
M58 1813v469h468v-469h-468zM1228 1813v469h468v-469h-468zM2399 1813v469h468v-469h-468zM58 2399v468h468v-468h-468zM1228 2399v468h468v-468h-468zM2399 2399v468h468v-468h-468zM58 2984v468h468v-468h-468zM1228 2984v468h468v-468h-468zM2399 2984v468h468v-468h-468
zM58 3569v468h468v-468h-468zM1228 3569v468h468v-468h-468zM2399 3569v468h468v-468h-468z" />
    <glyph glyph-name="uni042A" unicode="&#x42a;" 
d="M58 58v468h468v-468h-468zM643 58v468h468v-468h-468zM1228 58v468h468v-468h-468zM1813 58v468h469v-468h-469zM58 643v468h468v-468h-468zM2399 643v468h468v-468h-468zM58 1228v468h468v-468h-468zM2399 1228v468h468v-468h-468zM58 1813v469h468v-469h-468zM643 1813
v469h468v-469h-468zM1228 1813v469h468v-469h-468zM1813 1813v469h469v-469h-469zM58 2399v468h468v-468h-468zM643 2984v468h468v-468h-468zM58 3569v468h468v-468h-468zM643 3569v468h468v-468h-468z" />
    <glyph glyph-name="uni042B" unicode="&#x42b;" 
d="M58 58v468h468v-468h-468zM643 58v468h468v-468h-468zM1228 58v468h468v-468h-468zM2399 58v468h468v-468h-468zM58 643v468h468v-468h-468zM1813 643v468h469v-468h-469zM2399 643v468h468v-468h-468zM58 1228v468h468v-468h-468zM1813 1228v468h469v-468h-469z
M2399 1228v468h468v-468h-468zM58 1813v469h468v-469h-468zM643 1813v469h468v-469h-468zM1228 1813v469h468v-469h-468zM2399 1813v469h468v-469h-468zM58 2399v468h468v-468h-468zM2399 2399v468h468v-468h-468zM58 2984v468h468v-468h-468zM2399 2984v468h468v-468h-468z
M58 3569v468h468v-468h-468zM2399 3569v468h468v-468h-468z" />
    <glyph glyph-name="uni042C" unicode="&#x42c;" 
d="M58 58v468h468v-468h-468zM643 58v468h468v-468h-468zM1228 58v468h468v-468h-468zM1813 58v468h469v-468h-469zM58 643v468h468v-468h-468zM2399 643v468h468v-468h-468zM58 1228v468h468v-468h-468zM2399 1228v468h468v-468h-468zM58 1813v469h468v-469h-468zM643 1813
v469h468v-469h-468zM1228 1813v469h468v-469h-468zM1813 1813v469h469v-469h-469zM58 2399v468h468v-468h-468zM58 2984v468h468v-468h-468zM58 3569v468h468v-468h-468z" />
    <glyph glyph-name="uni042D" unicode="&#x42d;" 
d="M643 58v468h468v-468h-468zM1228 58v468h468v-468h-468zM1813 58v468h469v-468h-469zM58 643v468h468v-468h-468zM2399 643v468h468v-468h-468zM2399 1228v468h468v-468h-468zM643 1813v469h468v-469h-468zM1228 1813v469h468v-469h-468zM1813 1813v469h469v-469h-469z
M2399 1813v469h468v-469h-468zM2399 2399v468h468v-468h-468zM58 2984v468h468v-468h-468zM2399 2984v468h468v-468h-468zM643 3569v468h468v-468h-468zM1228 3569v468h468v-468h-468zM1813 3569v468h469v-468h-469z" />
    <glyph glyph-name="uni042E" unicode="&#x42e;" 
d="M58 58v468h468v-468h-468zM1813 58v468h469v-468h-469zM58 643v468h468v-468h-468zM1228 643v468h468v-468h-468zM2399 643v468h468v-468h-468zM58 1228v468h468v-468h-468zM1228 1228v468h468v-468h-468zM2399 1228v468h468v-468h-468zM58 1813v469h468v-469h-468z
M643 1813v469h468v-469h-468zM1228 1813v469h468v-469h-468zM2399 1813v469h468v-469h-468zM58 2399v468h468v-468h-468zM1228 2399v468h468v-468h-468zM2399 2399v468h468v-468h-468zM58 2984v468h468v-468h-468zM1228 2984v468h468v-468h-468zM2399 2984v468h468v-468
h-468zM58 3569v468h468v-468h-468zM1813 3569v468h469v-468h-469z" />
    <glyph glyph-name="uni042F" unicode="&#x42f;" 
d="M58 58v468h468v-468h-468zM2399 58v468h468v-468h-468zM643 643v468h468v-468h-468zM2399 643v468h468v-468h-468zM1228 1228v468h468v-468h-468zM2399 1228v468h468v-468h-468zM643 1813v469h468v-469h-468zM1228 1813v469h468v-469h-468zM1813 1813v469h469v-469h-469z
M2399 1813v469h468v-469h-468zM58 2399v468h468v-468h-468zM2399 2399v468h468v-468h-468zM58 2984v468h468v-468h-468zM2399 2984v468h468v-468h-468zM643 3569v468h468v-468h-468zM1228 3569v468h468v-468h-468zM1813 3569v468h469v-468h-469zM2399 3569v468h468v-468
h-468z" />
    <glyph glyph-name="uni0430" unicode="&#x430;" 
d="M643 58v468h468v-468h-468zM1228 58v468h468v-468h-468zM1813 58v468h469v-468h-469zM2399 58v468h468v-468h-468zM58 643v468h468v-468h-468zM2399 643v468h468v-468h-468zM643 1228v468h468v-468h-468zM1228 1228v468h468v-468h-468zM1813 1228v468h469v-468h-469z
M2399 1228v468h468v-468h-468zM2399 1813v469h468v-469h-468zM58 2399v468h468v-468h-468zM643 2399v468h468v-468h-468zM1228 2399v468h468v-468h-468zM1813 2399v468h469v-468h-469z" />
    <glyph glyph-name="uni0431" unicode="&#x431;" 
d="M643 58v468h468v-468h-468zM1228 58v468h468v-468h-468zM1813 58v468h469v-468h-469zM58 643v468h468v-468h-468zM2399 643v468h468v-468h-468zM58 1228v468h468v-468h-468zM2399 1228v468h468v-468h-468zM58 1813v469h468v-469h-468zM643 1813v469h468v-469h-468z
M1228 1813v469h468v-469h-468zM1813 1813v469h469v-469h-469zM58 2399v468h468v-468h-468zM643 2984v468h468v-468h-468zM1228 2984v468h468v-468h-468zM1813 2984v468h469v-468h-469zM2399 3569v468h468v-468h-468z" />
    <glyph glyph-name="uni0432" unicode="&#x432;" 
d="M58 58v468h468v-468h-468zM643 58v468h468v-468h-468zM1228 58v468h468v-468h-468zM1813 58v468h469v-468h-469zM58 643v468h468v-468h-468zM2399 643v468h468v-468h-468zM58 1228v468h468v-468h-468zM643 1228v468h468v-468h-468zM1228 1228v468h468v-468h-468z
M1813 1228v468h469v-468h-469zM58 1813v469h468v-469h-468zM2399 1813v469h468v-469h-468zM58 2399v468h468v-468h-468zM643 2399v468h468v-468h-468zM1228 2399v468h468v-468h-468zM1813 2399v468h469v-468h-469z" />
    <glyph glyph-name="uni0433" unicode="&#x433;" horiz-adv-x="2925" 
d="M58 58v468h468v-468h-468zM58 643v468h468v-468h-468zM58 1228v468h468v-468h-468zM58 1813v469h468v-469h-468zM58 2399v468h468v-468h-468zM643 2399v468h468v-468h-468zM1228 2399v468h468v-468h-468zM1813 2399v468h469v-468h-469z" />
    <glyph glyph-name="uni0434" unicode="&#x434;" 
d="M58 58v468h468v-468h-468zM2399 58v468h468v-468h-468zM58 643v468h468v-468h-468zM643 643v468h468v-468h-468zM1228 643v468h468v-468h-468zM1813 643v468h469v-468h-469zM2399 643v468h468v-468h-468zM643 1228v468h468v-468h-468zM1813 1228v468h469v-468h-469z
M643 1813v469h468v-469h-468zM1813 1813v469h469v-469h-469zM643 2399v468h468v-468h-468zM1228 2399v468h468v-468h-468zM1813 2399v468h469v-468h-469z" />
    <glyph glyph-name="uni0435" unicode="&#x435;" 
d="M643 58v468h468v-468h-468zM1228 58v468h468v-468h-468zM1813 58v468h469v-468h-469zM2399 58v468h468v-468h-468zM58 643v468h468v-468h-468zM58 1228v468h468v-468h-468zM643 1228v468h468v-468h-468zM1228 1228v468h468v-468h-468zM1813 1228v468h469v-468h-469z
M2399 1228v468h468v-468h-468zM58 1813v469h468v-469h-468zM2399 1813v469h468v-469h-468zM643 2399v468h468v-468h-468zM1228 2399v468h468v-468h-468zM1813 2399v468h469v-468h-469z" />
    <glyph glyph-name="uni0436" unicode="&#x436;" 
d="M58 58v468h468v-468h-468zM1228 58v468h468v-468h-468zM2399 58v468h468v-468h-468zM58 643v468h468v-468h-468zM1228 643v468h468v-468h-468zM2399 643v468h468v-468h-468zM643 1228v468h468v-468h-468zM1228 1228v468h468v-468h-468zM1813 1228v468h469v-468h-469z
M643 1813v469h468v-469h-468zM1228 1813v469h468v-469h-468zM1813 1813v469h469v-469h-469zM58 2399v468h468v-468h-468zM1228 2399v468h468v-468h-468zM2399 2399v468h468v-468h-468z" />
    <glyph glyph-name="uni0437" unicode="&#x437;" 
d="M643 58v468h468v-468h-468zM1228 58v468h468v-468h-468zM1813 58v468h469v-468h-469zM58 643v468h468v-468h-468zM2399 643v468h468v-468h-468zM1228 1228v468h468v-468h-468zM1813 1228v468h469v-468h-469zM58 1813v469h468v-469h-468zM2399 1813v469h468v-469h-468z
M643 2399v468h468v-468h-468zM1228 2399v468h468v-468h-468zM1813 2399v468h469v-468h-469z" />
    <glyph glyph-name="uni0438" unicode="&#x438;" 
d="M58 58v468h468v-468h-468zM2399 58v468h468v-468h-468zM58 643v468h468v-468h-468zM643 643v468h468v-468h-468zM2399 643v468h468v-468h-468zM58 1228v468h468v-468h-468zM1228 1228v468h468v-468h-468zM2399 1228v468h468v-468h-468zM58 1813v469h468v-469h-468z
M1813 1813v469h469v-469h-469zM2399 1813v469h468v-469h-468zM58 2399v468h468v-468h-468zM2399 2399v468h468v-468h-468z" />
    <glyph glyph-name="uni0439" unicode="&#x439;" 
d="M58 58v468h468v-468h-468zM2399 58v468h468v-468h-468zM58 643v468h468v-468h-468zM643 643v468h468v-468h-468zM2399 643v468h468v-468h-468zM58 1228v468h468v-468h-468zM1228 1228v468h468v-468h-468zM2399 1228v468h468v-468h-468zM58 1813v469h468v-469h-468z
M1813 1813v469h469v-469h-469zM2399 1813v469h468v-469h-468zM58 2399v468h468v-468h-468zM1228 2399v468h468v-468h-468zM2399 2399v468h468v-468h-468z" />
    <glyph glyph-name="uni043A" unicode="&#x43a;" horiz-adv-x="2925" 
d="M58 58v468h468v-468h-468zM1813 58v468h469v-468h-469zM58 643v468h468v-468h-468zM1228 643v468h468v-468h-468zM58 1228v468h468v-468h-468zM643 1228v468h468v-468h-468zM58 1813v469h468v-469h-468zM1228 1813v469h468v-469h-468zM58 2399v468h468v-468h-468z
M1813 2399v468h469v-468h-469z" />
    <glyph glyph-name="uni043B" unicode="&#x43b;" 
d="M643 58v468h468v-468h-468zM2399 58v468h468v-468h-468zM58 643v468h468v-468h-468zM1228 643v468h468v-468h-468zM2399 643v468h468v-468h-468zM1228 1228v468h468v-468h-468zM2399 1228v468h468v-468h-468zM1228 1813v469h468v-469h-468zM2399 1813v469h468v-469h-468z
M1228 2399v468h468v-468h-468zM1813 2399v468h469v-468h-469zM2399 2399v468h468v-468h-468z" />
    <glyph glyph-name="uni043C" unicode="&#x43c;" 
d="M58 58v468h468v-468h-468zM2399 58v468h468v-468h-468zM58 643v468h468v-468h-468zM2399 643v468h468v-468h-468zM58 1228v468h468v-468h-468zM1228 1228v468h468v-468h-468zM2399 1228v468h468v-468h-468zM58 1813v469h468v-469h-468zM643 1813v469h468v-469h-468z
M1813 1813v469h469v-469h-469zM2399 1813v469h468v-469h-468zM58 2399v468h468v-468h-468zM2399 2399v468h468v-468h-468z" />
    <glyph glyph-name="uni043D" unicode="&#x43d;" 
d="M58 58v468h468v-468h-468zM2399 58v468h468v-468h-468zM58 643v468h468v-468h-468zM2399 643v468h468v-468h-468zM58 1228v468h468v-468h-468zM643 1228v468h468v-468h-468zM1228 1228v468h468v-468h-468zM1813 1228v468h469v-468h-469zM2399 1228v468h468v-468h-468z
M58 1813v469h468v-469h-468zM2399 1813v469h468v-469h-468zM58 2399v468h468v-468h-468zM2399 2399v468h468v-468h-468z" />
    <glyph glyph-name="uni043E" unicode="&#x43e;" 
d="M643 58v468h468v-468h-468zM1228 58v468h468v-468h-468zM1813 58v468h469v-468h-469zM58 643v468h468v-468h-468zM2399 643v468h468v-468h-468zM58 1228v468h468v-468h-468zM2399 1228v468h468v-468h-468zM58 1813v469h468v-469h-468zM2399 1813v469h468v-469h-468z
M643 2399v468h468v-468h-468zM1228 2399v468h468v-468h-468zM1813 2399v468h469v-468h-469z" />
    <glyph glyph-name="uni043F" unicode="&#x43f;" 
d="M58 58v468h468v-468h-468zM2399 58v468h468v-468h-468zM58 643v468h468v-468h-468zM2399 643v468h468v-468h-468zM58 1228v468h468v-468h-468zM2399 1228v468h468v-468h-468zM58 1813v469h468v-469h-468zM2399 1813v469h468v-469h-468zM58 2399v468h468v-468h-468z
M643 2399v468h468v-468h-468zM1228 2399v468h468v-468h-468zM1813 2399v468h469v-468h-469zM2399 2399v468h468v-468h-468z" />
    <glyph glyph-name="uni0440" unicode="&#x440;" 
d="M58 58v468h468v-468h-468zM58 643v468h468v-468h-468zM58 1228v468h468v-468h-468zM643 1228v468h468v-468h-468zM1228 1228v468h468v-468h-468zM1813 1228v468h469v-468h-469zM58 1813v469h468v-469h-468zM2399 1813v469h468v-469h-468zM58 2399v468h468v-468h-468z
M643 2399v468h468v-468h-468zM1228 2399v468h468v-468h-468zM1813 2399v468h469v-468h-469z" />
    <glyph glyph-name="uni0441" unicode="&#x441;" 
d="M643 58v468h468v-468h-468zM1228 58v468h468v-468h-468zM1813 58v468h469v-468h-469zM2399 58v468h468v-468h-468zM58 643v468h468v-468h-468zM58 1228v468h468v-468h-468zM58 1813v469h468v-469h-468zM643 2399v468h468v-468h-468zM1228 2399v468h468v-468h-468z
M1813 2399v468h469v-468h-469zM2399 2399v468h468v-468h-468z" />
    <glyph glyph-name="uni0442" unicode="&#x442;" 
d="M1228 58v468h468v-468h-468zM1228 643v468h468v-468h-468zM1228 1228v468h468v-468h-468zM1228 1813v469h468v-469h-468zM58 2399v468h468v-468h-468zM643 2399v468h468v-468h-468zM1228 2399v468h468v-468h-468zM1813 2399v468h469v-468h-469zM2399 2399v468h468v-468
h-468z" />
    <glyph glyph-name="uni0443" unicode="&#x443;" 
d="M643 58v468h468v-468h-468zM1228 58v468h468v-468h-468zM1813 58v468h469v-468h-469zM2399 643v468h468v-468h-468zM643 1228v468h468v-468h-468zM1228 1228v468h468v-468h-468zM1813 1228v468h469v-468h-469zM2399 1228v468h468v-468h-468zM58 1813v469h468v-469h-468z
M2399 1813v469h468v-469h-468zM58 2399v468h468v-468h-468zM2399 2399v468h468v-468h-468z" />
    <glyph glyph-name="uni0444" unicode="&#x444;" 
d="M1228 58v468h468v-468h-468zM643 643v468h468v-468h-468zM1228 643v468h468v-468h-468zM1813 643v468h469v-468h-469zM58 1228v468h468v-468h-468zM1228 1228v468h468v-468h-468zM2399 1228v468h468v-468h-468zM58 1813v469h468v-469h-468zM1228 1813v469h468v-469h-468z
M2399 1813v469h468v-469h-468zM643 2399v468h468v-468h-468zM1228 2399v468h468v-468h-468zM1813 2399v468h469v-468h-469z" />
    <glyph glyph-name="uni0445" unicode="&#x445;" 
d="M58 58v468h468v-468h-468zM2399 58v468h468v-468h-468zM643 643v468h468v-468h-468zM1813 643v468h469v-468h-469zM1228 1228v468h468v-468h-468zM643 1813v469h468v-469h-468zM1813 1813v469h469v-469h-469zM58 2399v468h468v-468h-468zM2399 2399v468h468v-468h-468z
" />
    <glyph glyph-name="uni0446" unicode="&#x446;" 
d="M2399 58v468h468v-468h-468zM58 643v468h468v-468h-468zM643 643v468h468v-468h-468zM1228 643v468h468v-468h-468zM1813 643v468h469v-468h-469zM2399 643v468h468v-468h-468zM58 1228v468h468v-468h-468zM1813 1228v468h469v-468h-469zM58 1813v469h468v-469h-468z
M1813 1813v469h469v-469h-469zM58 2399v468h468v-468h-468zM1813 2399v468h469v-468h-469z" />
    <glyph glyph-name="uni0447" unicode="&#x447;" 
d="M2399 58v468h468v-468h-468zM2399 643v468h468v-468h-468zM643 1228v468h468v-468h-468zM1228 1228v468h468v-468h-468zM1813 1228v468h469v-468h-469zM2399 1228v468h468v-468h-468zM58 1813v469h468v-469h-468zM2399 1813v469h468v-469h-468zM58 2399v468h468v-468
h-468zM2399 2399v468h468v-468h-468z" />
    <glyph glyph-name="uni0448" unicode="&#x448;" 
d="M58 58v468h468v-468h-468zM643 58v468h468v-468h-468zM1228 58v468h468v-468h-468zM1813 58v468h469v-468h-469zM2399 58v468h468v-468h-468zM58 643v468h468v-468h-468zM1228 643v468h468v-468h-468zM2399 643v468h468v-468h-468zM58 1228v468h468v-468h-468zM1228 1228
v468h468v-468h-468zM2399 1228v468h468v-468h-468zM58 1813v469h468v-469h-468zM1228 1813v469h468v-469h-468zM2399 1813v469h468v-469h-468zM58 2399v468h468v-468h-468zM1228 2399v468h468v-468h-468zM2399 2399v468h468v-468h-468z" />
    <glyph glyph-name="uni0449" unicode="&#x449;" 
d="M2399 58v468h468v-468h-468zM58 643v468h468v-468h-468zM643 643v468h468v-468h-468zM1228 643v468h468v-468h-468zM1813 643v468h469v-468h-469zM2399 643v468h468v-468h-468zM58 1228v468h468v-468h-468zM1228 1228v468h468v-468h-468zM2399 1228v468h468v-468h-468z
M58 1813v469h468v-469h-468zM1228 1813v469h468v-469h-468zM2399 1813v469h468v-469h-468zM58 2399v468h468v-468h-468zM1228 2399v468h468v-468h-468zM2399 2399v468h468v-468h-468z" />
    <glyph glyph-name="uni044A" unicode="&#x44a;" 
d="M643 58v468h468v-468h-468zM1228 58v468h468v-468h-468zM1813 58v468h469v-468h-469zM643 643v468h468v-468h-468zM2399 643v468h468v-468h-468zM643 1228v468h468v-468h-468zM1228 1228v468h468v-468h-468zM1813 1228v468h469v-468h-469zM643 1813v469h468v-469h-468z
M58 2399v468h468v-468h-468zM643 2399v468h468v-468h-468z" />
    <glyph glyph-name="uni044B" unicode="&#x44b;" 
d="M58 58v468h468v-468h-468zM643 58v468h468v-468h-468zM1228 58v468h468v-468h-468zM2399 58v468h468v-468h-468zM58 643v468h468v-468h-468zM1813 643v468h469v-468h-469zM2399 643v468h468v-468h-468zM58 1228v468h468v-468h-468zM643 1228v468h468v-468h-468z
M1228 1228v468h468v-468h-468zM2399 1228v468h468v-468h-468zM58 1813v469h468v-469h-468zM2399 1813v469h468v-469h-468zM58 2399v468h468v-468h-468zM2399 2399v468h468v-468h-468z" />
    <glyph glyph-name="uni044C" unicode="&#x44c;" 
d="M58 58v468h468v-468h-468zM643 58v468h468v-468h-468zM1228 58v468h468v-468h-468zM1813 58v468h469v-468h-469zM58 643v468h468v-468h-468zM2399 643v468h468v-468h-468zM58 1228v468h468v-468h-468zM643 1228v468h468v-468h-468zM1228 1228v468h468v-468h-468z
M1813 1228v468h469v-468h-469zM58 1813v469h468v-469h-468zM58 2399v468h468v-468h-468z" />
    <glyph glyph-name="uni044D" unicode="&#x44d;" 
d="M58 58v468h468v-468h-468zM643 58v468h468v-468h-468zM1228 58v468h468v-468h-468zM1813 58v468h469v-468h-469zM2399 643v468h468v-468h-468zM1228 1228v468h468v-468h-468zM1813 1228v468h469v-468h-469zM2399 1228v468h468v-468h-468zM2399 1813v469h468v-469h-468z
M58 2399v468h468v-468h-468zM643 2399v468h468v-468h-468zM1228 2399v468h468v-468h-468zM1813 2399v468h469v-468h-469z" />
    <glyph glyph-name="uni044E" unicode="&#x44e;" 
d="M58 58v468h468v-468h-468zM1813 58v468h469v-468h-469zM58 643v468h468v-468h-468zM1228 643v468h468v-468h-468zM2399 643v468h468v-468h-468zM58 1228v468h468v-468h-468zM643 1228v468h468v-468h-468zM1228 1228v468h468v-468h-468zM2399 1228v468h468v-468h-468z
M58 1813v469h468v-469h-468zM1228 1813v469h468v-469h-468zM2399 1813v469h468v-469h-468zM58 2399v468h468v-468h-468zM1813 2399v468h469v-468h-469z" />
    <glyph glyph-name="uni044F" unicode="&#x44f;" 
d="M58 58v468h468v-468h-468zM643 58v468h468v-468h-468zM2399 58v468h468v-468h-468zM1228 643v468h468v-468h-468zM2399 643v468h468v-468h-468zM643 1228v468h468v-468h-468zM1228 1228v468h468v-468h-468zM1813 1228v468h469v-468h-469zM2399 1228v468h468v-468h-468z
M58 1813v469h468v-469h-468zM2399 1813v469h468v-469h-468zM643 2399v468h468v-468h-468zM1228 2399v468h468v-468h-468zM1813 2399v468h469v-468h-469zM2399 2399v468h468v-468h-468z" />
    <glyph glyph-name="uni1E9E" unicode="&#x1e9e;" 
d="M58 58v468h468v-468h-468zM1228 58v468h468v-468h-468zM1813 58v468h469v-468h-469zM2399 58v468h468v-468h-468zM58 643v468h468v-468h-468zM2399 643v468h468v-468h-468zM58 1228v468h468v-468h-468zM2399 1228v468h468v-468h-468zM58 1813v469h468v-469h-468z
M1228 1813v469h468v-469h-468zM1813 1813v469h469v-469h-469zM58 2399v468h468v-468h-468zM2399 2399v468h468v-468h-468zM58 2984v468h468v-468h-468zM2399 2984v468h468v-468h-468zM643 3569v468h468v-468h-468zM1228 3569v468h468v-468h-468zM1813 3569v468h469v-468
h-469z" />
    <glyph glyph-name="quoteleft" unicode="&#x2018;" horiz-adv-x="2340" 
d="M643 2399v468h468v-468h-468zM1228 2399v468h468v-468h-468zM643 2984v468h468v-468h-468zM1228 3569v468h468v-468h-468z" />
    <glyph glyph-name="quoteright" unicode="&#x2019;" horiz-adv-x="2925" 
d="M1228 2399v468h468v-468h-468zM1813 2984v468h469v-468h-469zM1228 3569v468h468v-468h-468zM1813 3569v468h469v-468h-469z" />
    <glyph glyph-name="quotedblleft" unicode="&#x201c;" horiz-adv-x="2925" 
d="M643 2984v468h468v-468h-468zM1813 2984v468h469v-468h-469zM643 3569v468h468v-468h-468zM1813 3569v468h469v-468h-469z" />
    <glyph glyph-name="quotedblright" unicode="&#x201d;" horiz-adv-x="2925" 
d="M643 2984v468h468v-468h-468zM1813 2984v468h469v-468h-469zM643 3569v468h468v-468h-468zM1813 3569v468h469v-468h-469z" />
    <glyph glyph-name="Euro" unicode="&#x20ac;" 
d="M643 58v468h468v-468h-468zM1228 58v468h468v-468h-468zM1813 58v468h469v-468h-469zM2399 58v468h468v-468h-468zM58 643v468h468v-468h-468zM58 1228v468h468v-468h-468zM643 1228v468h468v-468h-468zM1228 1228v468h468v-468h-468zM1813 1228v468h469v-468h-469z
M58 1813v469h468v-469h-468zM58 2399v468h468v-468h-468zM643 2399v468h468v-468h-468zM1228 2399v468h468v-468h-468zM1813 2399v468h469v-468h-469zM58 2984v468h468v-468h-468zM643 3569v468h468v-468h-468zM1228 3569v468h468v-468h-468zM1813 3569v468h469v-468h-469z
M2399 3569v468h468v-468h-468z" />
  </font>
</defs>
</svg>
